<svg width="24" height="24" viewBox="0 0 24 24" fill="none" xmlns="http://www.w3.org/2000/svg">
<path d="M12 2.25C11.586 2.25 11.25 2.586 11.25 3C11.25 3.414 11.586 3.75 12 3.75C12.414 3.75 12.75 3.414 12.75 3C12.75 2.586 12.414 2.25 12 2.25ZM12 4.5C11.586 4.5 11.25 4.836 11.25 5.25C11.25 5.664 11.586 6 12 6C12.414 6 12.75 5.664 12.75 5.25C12.75 4.836 12.414 4.5 12 4.5ZM12 6.75C11.586 6.75 11.25 7.086 11.25 7.5C11.25 7.914 11.586 8.25 12 8.25C12.414 8.25 12.75 7.914 12.75 7.5C12.75 7.086 12.414 6.75 12 6.75ZM12 9C11.586 9 11.25 9.336 11.25 9.75C11.25 10.164 11.586 10.5 12 10.5C12.414 10.5 12.75 10.164 12.75 9.75C12.75 9.336 12.414 9 12 9ZM12 11.25C11.586 11.25 11.25 11.586 11.25 12C11.25 12.414 11.586 12.75 12 12.75C12.414 12.75 12.75 12.414 12.75 12C12.75 11.586 12.414 11.25 12 11.25ZM18.75 13.5C18.336 13.5 18 13.836 18 14.25C18 14.664 18.336 15 18.75 15C19.164 15 19.5 14.664 19.5 14.25C19.5 13.836 19.164 13.5 18.75 13.5ZM16.5 13.5C16.086 13.5 15.75 13.836 15.75 14.25C15.75 14.664 16.086 15 16.5 15C16.914 15 17.25 14.664 17.25 14.25C17.25 13.836 16.914 13.5 16.5 13.5ZM14.25 13.5C13.836 13.5 13.5 13.836 13.5 14.25C13.5 14.664 13.836 15 14.25 15C14.664 15 15 14.664 15 14.25C15 13.836 14.664 13.5 14.25 13.5ZM12 13.5C11.586 13.5 11.25 13.836 11.25 14.25C11.25 14.664 11.586 15 12 15C12.414 15 12.75 14.664 12.75 14.25C12.75 13.836 12.414 13.5 12 13.5ZM9.75 13.5C9.336 13.5 9 13.836 9 14.25C9 14.664 9.336 15 9.75 15C10.164 15 10.5 14.664 10.5 14.25C10.5 13.836 10.164 13.5 9.75 13.5ZM7.5 13.5C7.086 13.5 6.75 13.836 6.75 14.25C6.75 14.664 7.086 15 7.5 15C7.914 15 8.25 14.664 8.25 14.25C8.25 13.836 7.914 13.5 7.5 13.5ZM5.25 13.5C4.836 13.5 4.5 13.836 4.5 14.25C4.5 14.664 4.836 15 5.25 15C5.664 15 6 14.664 6 14.25C6 13.836 5.664 13.5 5.25 13.5ZM3 13.5C2.586 13.5 2.25 13.836 2.25 14.25C2.25 14.664 2.586 15 3 15C3.414 15 3.75 14.664 3.75 14.25C3.75 13.836 3.414 13.5 3 13.5ZM12 0C11.586 0 11.25 0.336 11.25 0.75C11.25 1.164 11.586 1.5 12 1.5C12.414 1.5 12.75 1.164 12.75 0.75C12.75 0.336 12.414 0 12 0ZM14.25 22.5C13.836 22.5 13.5 22.836 13.5 23.25C13.5 23.664 13.836 24 14.25 24C14.664 24 15 23.664 15 23.25C15 22.836 14.664 22.5 14.25 22.5ZM12 22.5C11.586 22.5 11.25 22.836 11.25 23.25C11.25 23.664 11.586 24 12 24C12.414 24 12.75 23.664 12.75 23.25C12.75 22.836 12.414 22.5 12 22.5ZM9.75 22.5C9.336 22.5 9 22.836 9 23.25C9 23.664 9.336 24 9.75 24C10.164 24 10.5 23.664 10.5 23.25C10.5 22.836 10.164 22.5 9.75 22.5ZM21 13.5C20.586 13.5 20.25 13.836 20.25 14.25C20.25 14.664 20.586 15 21 15C21.414 15 21.75 14.664 21.75 14.25C21.75 13.836 21.414 13.5 21 13.5ZM16.5 18C16.086 18 15.75 18.336 15.75 18.75C15.75 19.164 16.086 19.5 16.5 19.5C16.914 19.5 17.25 19.164 17.25 18.75C17.25 18.336 16.914 18 16.5 18ZM14.25 18C13.836 18 13.5 18.336 13.5 18.75C13.5 19.164 13.836 19.5 14.25 19.5C14.664 19.5 15 19.164 15 18.75C15 18.336 14.664 18 14.25 18ZM12 18C11.586 18 11.25 18.336 11.25 18.75C11.25 19.164 11.586 19.5 12 19.5C12.414 19.5 12.75 19.164 12.75 18.75C12.75 18.336 12.414 18 12 18ZM9.75 18C9.336 18 9 18.336 9 18.75C9 19.164 9.336 19.5 9.75 19.5C10.164 19.5 10.5 19.164 10.5 18.75C10.5 18.336 10.164 18 9.75 18ZM7.5 18C7.086 18 6.75 18.336 6.75 18.75C6.75 19.164 7.086 19.5 7.5 19.5C7.914 19.5 8.25 19.164 8.25 18.75C8.25 18.336 7.914 18 7.5 18Z" fill="white"/>
</svg>
