<svg width="24" height="24" viewBox="0 0 24 24" fill="none" xmlns="http://www.w3.org/2000/svg">
<path d="M3 6.75C2.80109 6.75 2.61032 6.82902 2.46967 6.96967C2.32902 7.11032 2.25 7.30109 2.25 7.5C2.25 7.69891 2.32902 7.88968 2.46967 8.03033C2.61032 8.17098 2.80109 8.25 3 8.25C3.19891 8.25 3.38968 8.17098 3.53033 8.03033C3.67098 7.88968 3.75 7.69891 3.75 7.5C3.75 7.30109 3.67098 7.11032 3.53033 6.96967C3.38968 6.82902 3.19891 6.75 3 6.75ZM3 11.25C2.80109 11.25 2.61032 11.329 2.46967 11.4697C2.32902 11.6103 2.25 11.8011 2.25 12C2.25 12.1989 2.32902 12.3897 2.46967 12.5303C2.61032 12.671 2.80109 12.75 3 12.75C3.19891 12.75 3.38968 12.671 3.53033 12.5303C3.67098 12.3897 3.75 12.1989 3.75 12C3.75 11.8011 3.67098 11.6103 3.53033 11.4697C3.38968 11.329 3.19891 11.25 3 11.25ZM0.75 13.5C0.551088 13.5 0.360322 13.579 0.21967 13.7197C0.0790176 13.8603 0 14.0511 0 14.25C0 14.4489 0.0790176 14.6397 0.21967 14.7803C0.360322 14.921 0.551088 15 0.75 15C0.948912 15 1.13968 14.921 1.28033 14.7803C1.42098 14.6397 1.5 14.4489 1.5 14.25C1.5 14.0511 1.42098 13.8603 1.28033 13.7197C1.13968 13.579 0.948912 13.5 0.75 13.5ZM7.5 6.75C7.30109 6.75 7.11032 6.82902 6.96967 6.96967C6.82902 7.11032 6.75 7.30109 6.75 7.5C6.75 7.69891 6.82902 7.88968 6.96967 8.03033C7.11032 8.17098 7.30109 8.25 7.5 8.25C7.69891 8.25 7.88968 8.17098 8.03033 8.03033C8.17098 7.88968 8.25 7.69891 8.25 7.5C8.25 7.30109 8.17098 7.11032 8.03033 6.96967C7.88968 6.82902 7.69891 6.75 7.5 6.75ZM7.5 11.25C7.30109 11.25 7.11032 11.329 6.96967 11.4697C6.82902 11.6103 6.75 11.8011 6.75 12C6.75 12.1989 6.82902 12.3897 6.96967 12.5303C7.11032 12.671 7.30109 12.75 7.5 12.75C7.69891 12.75 7.88968 12.671 8.03033 12.5303C8.17098 12.3897 8.25 12.1989 8.25 12C8.25 11.8011 8.17098 11.6103 8.03033 11.4697C7.88968 11.329 7.69891 11.25 7.5 11.25ZM7.5 13.5C7.30109 13.5 7.11032 13.579 6.96967 13.7197C6.82902 13.8603 6.75 14.0511 6.75 14.25C6.75 14.4489 6.82902 14.6397 6.96967 14.7803C7.11032 14.921 7.30109 15 7.5 15C7.69891 15 7.88968 14.921 8.03033 14.7803C8.17098 14.6397 8.25 14.4489 8.25 14.25C8.25 14.0511 8.17098 13.8603 8.03033 13.7197C7.88968 13.579 7.69891 13.5 7.5 13.5ZM7.5 15.75C7.30109 15.75 7.11032 15.829 6.96967 15.9697C6.82902 16.1103 6.75 16.3011 6.75 16.5C6.75 16.6989 6.82902 16.8897 6.96967 17.0303C7.11032 17.171 7.30109 17.25 7.5 17.25C7.69891 17.25 7.88968 17.171 8.03033 17.0303C8.17098 16.8897 8.25 16.6989 8.25 16.5C8.25 16.3011 8.17098 16.1103 8.03033 15.9697C7.88968 15.829 7.69891 15.75 7.5 15.75ZM12 6.75C11.8011 6.75 11.6103 6.82902 11.4697 6.96967C11.329 7.11032 11.25 7.30109 11.25 7.5C11.25 7.69891 11.329 7.88968 11.4697 8.03033C11.6103 8.17098 11.8011 8.25 12 8.25C12.1989 8.25 12.3897 8.17098 12.5303 8.03033C12.671 7.88968 12.75 7.69891 12.75 7.5C12.75 7.30109 12.671 7.11032 12.5303 6.96967C12.3897 6.82902 12.1989 6.75 12 6.75ZM12 11.25C11.8011 11.25 11.6103 11.329 11.4697 11.4697C11.329 11.6103 11.25 11.8011 11.25 12C11.25 12.1989 11.329 12.3897 11.4697 12.5303C11.6103 12.671 11.8011 12.75 12 12.75C12.1989 12.75 12.3897 12.671 12.5303 12.5303C12.671 12.3897 12.75 12.1989 12.75 12C12.75 11.8011 12.671 11.6103 12.5303 11.4697C12.3897 11.329 12.1989 11.25 12 11.25ZM12 13.5C11.8011 13.5 11.6103 13.579 11.4697 13.7197C11.329 13.8603 11.25 14.0511 11.25 14.25C11.25 14.4489 11.329 14.6397 11.4697 14.7803C11.6103 14.921 11.8011 15 12 15C12.1989 15 12.3897 14.921 12.5303 14.7803C12.671 14.6397 12.75 14.4489 12.75 14.25C12.75 14.0511 12.671 13.8603 12.5303 13.7197C12.3897 13.579 12.1989 13.5 12 13.5ZM12 15.75C11.8011 15.75 11.6103 15.829 11.4697 15.9697C11.329 16.1103 11.25 16.3011 11.25 16.5C11.25 16.6989 11.329 16.8897 11.4697 17.0303C11.6103 17.171 11.8011 17.25 12 17.25C12.1989 17.25 12.3897 17.171 12.5303 17.0303C12.671 16.8897 12.75 16.6989 12.75 16.5C12.75 16.3011 12.671 16.1103 12.5303 15.9697C12.3897 15.829 12.1989 15.75 12 15.75ZM16.5 6.75C16.3011 6.75 16.1103 6.82902 15.9697 6.96967C15.829 7.11032 15.75 7.30109 15.75 7.5C15.75 7.69891 15.829 7.88968 15.9697 8.03033C16.1103 8.17098 16.3011 8.25 16.5 8.25C16.6989 8.25 16.8897 8.17098 17.0303 8.03033C17.171 7.88968 17.25 7.69891 17.25 7.5C17.25 7.30109 17.171 7.11032 17.0303 6.96967C16.8897 6.82902 16.6989 6.75 16.5 6.75ZM3 9C2.80109 9 2.61032 9.07902 2.46967 9.21967C2.32902 9.36032 2.25 9.55109 2.25 9.75C2.25 9.94891 2.32902 10.1397 2.46967 10.2803C2.61032 10.421 2.80109 10.5 3 10.5C3.19891 10.5 3.38968 10.421 3.53033 10.2803C3.67098 10.1397 3.75 9.94891 3.75 9.75C3.75 9.55109 3.67098 9.36032 3.53033 9.21967C3.38968 9.07902 3.19891 9 3 9ZM7.5 9C7.30109 9 7.11032 9.07902 6.96967 9.21967C6.82902 9.36032 6.75 9.55109 6.75 9.75C6.75 9.94891 6.82902 10.1397 6.96967 10.2803C7.11032 10.421 7.30109 10.5 7.5 10.5C7.69891 10.5 7.88968 10.421 8.03033 10.2803C8.17098 10.1397 8.25 9.94891 8.25 9.75C8.25 9.55109 8.17098 9.36032 8.03033 9.21967C7.88968 9.07902 7.69891 9 7.5 9ZM12 9C11.8011 9 11.6103 9.07902 11.4697 9.21967C11.329 9.36032 11.25 9.55109 11.25 9.75C11.25 9.94891 11.329 10.1397 11.4697 10.2803C11.6103 10.421 11.8011 10.5 12 10.5C12.1989 10.5 12.3897 10.421 12.5303 10.2803C12.671 10.1397 12.75 9.94891 12.75 9.75C12.75 9.55109 12.671 9.36032 12.5303 9.21967C12.3897 9.07902 12.1989 9 12 9ZM16.5 9C16.3011 9 16.1103 9.07902 15.9697 9.21967C15.829 9.36032 15.75 9.55109 15.75 9.75C15.75 9.94891 15.829 10.1397 15.9697 10.2803C16.1103 10.421 16.3011 10.5 16.5 10.5C16.6989 10.5 16.8897 10.421 17.0303 10.2803C17.171 10.1397 17.25 9.94891 17.25 9.75C17.25 9.55109 17.171 9.36032 17.0303 9.21967C16.8897 9.07902 16.6989 9 16.5 9ZM16.5 11.25C16.3011 11.25 16.1103 11.329 15.9697 11.4697C15.829 11.6103 15.75 11.8011 15.75 12C15.75 12.1989 15.829 12.3897 15.9697 12.5303C16.1103 12.671 16.3011 12.75 16.5 12.75C16.6989 12.75 16.8897 12.671 17.0303 12.5303C17.171 12.3897 17.25 12.1989 17.25 12C17.25 11.8011 17.171 11.6103 17.0303 11.4697C16.8897 11.329 16.6989 11.25 16.5 11.25ZM16.5 13.5C16.3011 13.5 16.1103 13.579 15.9697 13.7197C15.829 13.8603 15.75 14.0511 15.75 14.25C15.75 14.4489 15.829 14.6397 15.9697 14.7803C16.1103 14.921 16.3011 15 16.5 15C16.6989 15 16.8897 14.921 17.0303 14.7803C17.171 14.6397 17.25 14.4489 17.25 14.25C17.25 14.0511 17.171 13.8603 17.0303 13.7197C16.8897 13.579 16.6989 13.5 16.5 13.5ZM16.5 15.75C16.3011 15.75 16.1103 15.829 15.9697 15.9697C15.829 16.1103 15.75 16.3011 15.75 16.5C15.75 16.6989 15.829 16.8897 15.9697 17.0303C16.1103 17.171 16.3011 17.25 16.5 17.25C16.6989 17.25 16.8897 17.171 17.0303 17.0303C17.171 16.8897 17.25 16.6989 17.25 16.5C17.25 16.3011 17.171 16.1103 17.0303 15.9697C16.8897 15.829 16.6989 15.75 16.5 15.75ZM23.25 9C23.0511 9 22.8603 9.07902 22.7197 9.21967C22.579 9.36032 22.5 9.55109 22.5 9.75C22.5 9.94891 22.579 10.1397 22.7197 10.2803C22.8603 10.421 23.0511 10.5 23.25 10.5C23.4489 10.5 23.6397 10.421 23.7803 10.2803C23.921 10.1397 24 9.94891 24 9.75C24 9.55109 23.921 9.36032 23.7803 9.21967C23.6397 9.07902 23.4489 9 23.25 9ZM21 11.25C20.8011 11.25 20.6103 11.329 20.4697 11.4697C20.329 11.6103 20.25 11.8011 20.25 12C20.25 12.1989 20.329 12.3897 20.4697 12.5303C20.6103 12.671 20.8011 12.75 21 12.75C21.1989 12.75 21.3897 12.671 21.5303 12.5303C21.671 12.3897 21.75 12.1989 21.75 12C21.75 11.8011 21.671 11.6103 21.5303 11.4697C21.3897 11.329 21.1989 11.25 21 11.25ZM21 15.75C20.8011 15.75 20.6103 15.829 20.4697 15.9697C20.329 16.1103 20.25 16.3011 20.25 16.5C20.25 16.6989 20.329 16.8897 20.4697 17.0303C20.6103 17.171 20.8011 17.25 21 17.25C21.1989 17.25 21.3897 17.171 21.5303 17.0303C21.671 16.8897 21.75 16.6989 21.75 16.5C21.75 16.3011 21.671 16.1103 21.5303 15.9697C21.3897 15.829 21.1989 15.75 21 15.75ZM21 13.5C20.8011 13.5 20.6103 13.579 20.4697 13.7197C20.329 13.8603 20.25 14.0511 20.25 14.25C20.25 14.4489 20.329 14.6397 20.4697 14.7803C20.6103 14.921 20.8011 15 21 15C21.1989 15 21.3897 14.921 21.5303 14.7803C21.671 14.6397 21.75 14.4489 21.75 14.25C21.75 14.0511 21.671 13.8603 21.5303 13.7197C21.3897 13.579 21.1989 13.5 21 13.5ZM9.75 18C9.55109 18 9.36032 18.079 9.21967 18.2197C9.07902 18.3603 9 18.5511 9 18.75C9 18.9489 9.07902 19.1397 9.21967 19.2803C9.36032 19.421 9.55109 19.5 9.75 19.5C9.94891 19.5 10.1397 19.421 10.2803 19.2803C10.421 19.1397 10.5 18.9489 10.5 18.75C10.5 18.5511 10.421 18.3603 10.2803 18.2197C10.1397 18.079 9.94891 18 9.75 18ZM9.75 20.25C9.55109 20.25 9.36032 20.329 9.21967 20.4697C9.07902 20.6103 9 20.8011 9 21C9 21.1989 9.07902 21.3897 9.21967 21.5303C9.36032 21.671 9.55109 21.75 9.75 21.75C9.94891 21.75 10.1397 21.671 10.2803 21.5303C10.421 21.3897 10.5 21.1989 10.5 21C10.5 20.8011 10.421 20.6103 10.2803 20.4697C10.1397 20.329 9.94891 20.25 9.75 20.25ZM18.75 18C18.5511 18 18.3603 18.079 18.2197 18.2197C18.079 18.3603 18 18.5511 18 18.75C18 18.9489 18.079 19.1397 18.2197 19.2803C18.3603 19.421 18.5511 19.5 18.75 19.5C18.9489 19.5 19.1397 19.421 19.2803 19.2803C19.421 19.1397 19.5 18.9489 19.5 18.75C19.5 18.5511 19.421 18.3603 19.2803 18.2197C19.1397 18.079 18.9489 18 18.75 18ZM18.75 20.25C18.5511 20.25 18.3603 20.329 18.2197 20.4697C18.079 20.6103 18 20.8011 18 21C18 21.1989 18.079 21.3897 18.2197 21.5303C18.3603 21.671 18.5511 21.75 18.75 21.75C18.9489 21.75 19.1397 21.671 19.2803 21.5303C19.421 21.3897 19.5 21.1989 19.5 21C19.5 20.8011 19.421 20.6103 19.2803 20.4697C19.1397 20.329 18.9489 20.25 18.75 20.25ZM5.25 4.5C5.05109 4.5 4.86032 4.57902 4.71967 4.71967C4.57902 4.86032 4.5 5.05109 4.5 5.25C4.5 5.44891 4.57902 5.63968 4.71967 5.78033C4.86032 5.92098 5.05109 6 5.25 6C5.44891 6 5.63968 5.92098 5.78033 5.78033C5.92098 5.63968 6 5.44891 6 5.25C6 5.05109 5.92098 4.86032 5.78033 4.71967C5.63968 4.57902 5.44891 4.5 5.25 4.5ZM5.25 2.25C5.05109 2.25 4.86032 2.32902 4.71967 2.46967C4.57902 2.61032 4.5 2.80109 4.5 3C4.5 3.19891 4.57902 3.38968 4.71967 3.53033C4.86032 3.67098 5.05109 3.75 5.25 3.75C5.44891 3.75 5.63968 3.67098 5.78033 3.53033C5.92098 3.38968 6 3.19891 6 3C6 2.80109 5.92098 2.61032 5.78033 2.46967C5.63968 2.32902 5.44891 2.25 5.25 2.25ZM14.25 4.5C14.0511 4.5 13.8603 4.57902 13.7197 4.71967C13.579 4.86032 13.5 5.05109 13.5 5.25C13.5 5.44891 13.579 5.63968 13.7197 5.78033C13.8603 5.92098 14.0511 6 14.25 6C14.4489 6 14.6397 5.92098 14.7803 5.78033C14.921 5.63968 15 5.44891 15 5.25C15 5.05109 14.921 4.86032 14.7803 4.71967C14.6397 4.57902 14.4489 4.5 14.25 4.5ZM14.25 2.25C14.0511 2.25 13.8603 2.32902 13.7197 2.46967C13.579 2.61032 13.5 2.80109 13.5 3C13.5 3.19891 13.579 3.38968 13.7197 3.53033C13.8603 3.67098 14.0511 3.75 14.25 3.75C14.4489 3.75 14.6397 3.67098 14.7803 3.53033C14.921 3.38968 15 3.19891 15 3C15 2.80109 14.921 2.61032 14.7803 2.46967C14.6397 2.32902 14.4489 2.25 14.25 2.25Z" fill="white"/>
</svg>
