<svg width="24" height="24" viewBox="0 0 24 24" fill="none" xmlns="http://www.w3.org/2000/svg">
<path d="M7.5 20.25C7.30109 20.25 7.11032 20.329 6.96967 20.4697C6.82902 20.6103 6.75 20.8011 6.75 21C6.75 21.1989 6.82902 21.3897 6.96967 21.5303C7.11032 21.671 7.30109 21.75 7.5 21.75C7.69891 21.75 7.88968 21.671 8.03033 21.5303C8.17098 21.3897 8.25 21.1989 8.25 21C8.25 20.8011 8.17098 20.6103 8.03033 20.4697C7.88968 20.329 7.69891 20.25 7.5 20.25ZM5.25 20.25C5.05109 20.25 4.86032 20.329 4.71967 20.4697C4.57902 20.6103 4.5 20.8011 4.5 21C4.5 21.1989 4.57902 21.3897 4.71967 21.5303C4.86032 21.671 5.05109 21.75 5.25 21.75C5.44891 21.75 5.63968 21.671 5.78033 21.5303C5.92098 21.3897 6 21.1989 6 21C6 20.8011 5.92098 20.6103 5.78033 20.4697C5.63968 20.329 5.44891 20.25 5.25 20.25ZM3 20.25C2.80109 20.25 2.61032 20.329 2.46967 20.4697C2.32902 20.6103 2.25 20.8011 2.25 21C2.25 21.1989 2.32902 21.3897 2.46967 21.5303C2.61032 21.671 2.80109 21.75 3 21.75C3.19891 21.75 3.38968 21.671 3.53033 21.5303C3.67098 21.3897 3.75 21.1989 3.75 21C3.75 20.8011 3.67098 20.6103 3.53033 20.4697C3.38968 20.329 3.19891 20.25 3 20.25ZM21 20.25C20.8011 20.25 20.6103 20.329 20.4697 20.4697C20.329 20.6103 20.25 20.8011 20.25 21C20.25 21.1989 20.329 21.3897 20.4697 21.5303C20.6103 21.671 20.8011 21.75 21 21.75C21.1989 21.75 21.3897 21.671 21.5303 21.5303C21.671 21.3897 21.75 21.1989 21.75 21C21.75 20.8011 21.671 20.6103 21.5303 20.4697C21.3897 20.329 21.1989 20.25 21 20.25ZM9.75 20.25C9.55109 20.25 9.36032 20.329 9.21967 20.4697C9.07902 20.6103 9 20.8011 9 21C9 21.1989 9.07902 21.3897 9.21967 21.5303C9.36032 21.671 9.55109 21.75 9.75 21.75C9.94891 21.75 10.1397 21.671 10.2803 21.5303C10.421 21.3897 10.5 21.1989 10.5 21C10.5 20.8011 10.421 20.6103 10.2803 20.4697C10.1397 20.329 9.94891 20.25 9.75 20.25ZM0.75 18C0.551088 18 0.360322 18.079 0.21967 18.2197C0.0790176 18.3603 0 18.5511 0 18.75C0 18.9489 0.0790176 19.1397 0.21967 19.2803C0.360322 19.421 0.551088 19.5 0.75 19.5C0.948912 19.5 1.13968 19.421 1.28033 19.2803C1.42098 19.1397 1.5 18.9489 1.5 18.75C1.5 18.5511 1.42098 18.3603 1.28033 18.2197C1.13968 18.079 0.948912 18 0.75 18ZM0.75 20.25C0.551088 20.25 0.360322 20.329 0.21967 20.4697C0.0790176 20.6103 0 20.8011 0 21C0 21.1989 0.0790176 21.3897 0.21967 21.5303C0.360322 21.671 0.551088 21.75 0.75 21.75C0.948912 21.75 1.13968 21.671 1.28033 21.5303C1.42098 21.3897 1.5 21.1989 1.5 21C1.5 20.8011 1.42098 20.6103 1.28033 20.4697C1.13968 20.329 0.948912 20.25 0.75 20.25ZM18.75 20.25C18.5511 20.25 18.3603 20.329 18.2197 20.4697C18.079 20.6103 18 20.8011 18 21C18 21.1989 18.079 21.3897 18.2197 21.5303C18.3603 21.671 18.5511 21.75 18.75 21.75C18.9489 21.75 19.1397 21.671 19.2803 21.5303C19.421 21.3897 19.5 21.1989 19.5 21C19.5 20.8011 19.421 20.6103 19.2803 20.4697C19.1397 20.329 18.9489 20.25 18.75 20.25ZM16.5 20.25C16.3011 20.25 16.1103 20.329 15.9697 20.4697C15.829 20.6103 15.75 20.8011 15.75 21C15.75 21.1989 15.829 21.3897 15.9697 21.5303C16.1103 21.671 16.3011 21.75 16.5 21.75C16.6989 21.75 16.8897 21.671 17.0303 21.5303C17.171 21.3897 17.25 21.1989 17.25 21C17.25 20.8011 17.171 20.6103 17.0303 20.4697C16.8897 20.329 16.6989 20.25 16.5 20.25ZM23.25 18C23.0511 18 22.8603 18.079 22.7197 18.2197C22.579 18.3603 22.5 18.5511 22.5 18.75C22.5 18.9489 22.579 19.1397 22.7197 19.2803C22.8603 19.421 23.0511 19.5 23.25 19.5C23.4489 19.5 23.6397 19.421 23.7803 19.2803C23.921 19.1397 24 18.9489 24 18.75C24 18.5511 23.921 18.3603 23.7803 18.2197C23.6397 18.079 23.4489 18 23.25 18ZM23.25 20.25C23.0511 20.25 22.8603 20.329 22.7197 20.4697C22.579 20.6103 22.5 20.8011 22.5 21C22.5 21.1989 22.579 21.3897 22.7197 21.5303C22.8603 21.671 23.0511 21.75 23.25 21.75C23.4489 21.75 23.6397 21.671 23.7803 21.5303C23.921 21.3897 24 21.1989 24 21C24 20.8011 23.921 20.6103 23.7803 20.4697C23.6397 20.329 23.4489 20.25 23.25 20.25ZM14.25 20.25C14.0511 20.25 13.8603 20.329 13.7197 20.4697C13.579 20.6103 13.5 20.8011 13.5 21C13.5 21.1989 13.579 21.3897 13.7197 21.5303C13.8603 21.671 14.0511 21.75 14.25 21.75C14.4489 21.75 14.6397 21.671 14.7803 21.5303C14.921 21.3897 15 21.1989 15 21C15 20.8011 14.921 20.6103 14.7803 20.4697C14.6397 20.329 14.4489 20.25 14.25 20.25ZM12 20.25C11.8011 20.25 11.6103 20.329 11.4697 20.4697C11.329 20.6103 11.25 20.8011 11.25 21C11.25 21.1989 11.329 21.3897 11.4697 21.5303C11.6103 21.671 11.8011 21.75 12 21.75C12.1989 21.75 12.3897 21.671 12.5303 21.5303C12.671 21.3897 12.75 21.1989 12.75 21C12.75 20.8011 12.671 20.6103 12.5303 20.4697C12.3897 20.329 12.1989 20.25 12 20.25ZM0.75 13.5C0.551088 13.5 0.360322 13.579 0.21967 13.7197C0.0790176 13.8603 0 14.0511 0 14.25C0 14.4489 0.0790176 14.6397 0.21967 14.7803C0.360322 14.921 0.551088 15 0.75 15C0.948912 15 1.13968 14.921 1.28033 14.7803C1.42098 14.6397 1.5 14.4489 1.5 14.25C1.5 14.0511 1.42098 13.8603 1.28033 13.7197C1.13968 13.579 0.948912 13.5 0.75 13.5ZM0.75 15.75C0.551088 15.75 0.360322 15.829 0.21967 15.9697C0.0790176 16.1103 0 16.3011 0 16.5C0 16.6989 0.0790176 16.8897 0.21967 17.0303C0.360322 17.171 0.551088 17.25 0.75 17.25C0.948912 17.25 1.13968 17.171 1.28033 17.0303C1.42098 16.8897 1.5 16.6989 1.5 16.5C1.5 16.3011 1.42098 16.1103 1.28033 15.9697C1.13968 15.829 0.948912 15.75 0.75 15.75ZM23.25 13.5C23.0511 13.5 22.8603 13.579 22.7197 13.7197C22.579 13.8603 22.5 14.0511 22.5 14.25C22.5 14.4489 22.579 14.6397 22.7197 14.7803C22.8603 14.921 23.0511 15 23.25 15C23.4489 15 23.6397 14.921 23.7803 14.7803C23.921 14.6397 24 14.4489 24 14.25C24 14.0511 23.921 13.8603 23.7803 13.7197C23.6397 13.579 23.4489 13.5 23.25 13.5ZM23.25 15.75C23.0511 15.75 22.8603 15.829 22.7197 15.9697C22.579 16.1103 22.5 16.3011 22.5 16.5C22.5 16.6989 22.579 16.8897 22.7197 17.0303C22.8603 17.171 23.0511 17.25 23.25 17.25C23.4489 17.25 23.6397 17.171 23.7803 17.0303C23.921 16.8897 24 16.6989 24 16.5C24 16.3011 23.921 16.1103 23.7803 15.9697C23.6397 15.829 23.4489 15.75 23.25 15.75ZM0.75 9C0.551088 9 0.360322 9.07902 0.21967 9.21967C0.0790176 9.36032 0 9.55109 0 9.75C0 9.94891 0.0790176 10.1397 0.21967 10.2803C0.360322 10.421 0.551088 10.5 0.75 10.5C0.948912 10.5 1.13968 10.421 1.28033 10.2803C1.42098 10.1397 1.5 9.94891 1.5 9.75C1.5 9.55109 1.42098 9.36032 1.28033 9.21967C1.13968 9.07902 0.948912 9 0.75 9ZM3 9C2.80109 9 2.61032 9.07902 2.46967 9.21967C2.32902 9.36032 2.25 9.55109 2.25 9.75C2.25 9.94891 2.32902 10.1397 2.46967 10.2803C2.61032 10.421 2.80109 10.5 3 10.5C3.19891 10.5 3.38968 10.421 3.53033 10.2803C3.67098 10.1397 3.75 9.94891 3.75 9.75C3.75 9.55109 3.67098 9.36032 3.53033 9.21967C3.38968 9.07902 3.19891 9 3 9ZM21 9C20.8011 9 20.6103 9.07902 20.4697 9.21967C20.329 9.36032 20.25 9.55109 20.25 9.75C20.25 9.94891 20.329 10.1397 20.4697 10.2803C20.6103 10.421 20.8011 10.5 21 10.5C21.1989 10.5 21.3897 10.421 21.5303 10.2803C21.671 10.1397 21.75 9.94891 21.75 9.75C21.75 9.55109 21.671 9.36032 21.5303 9.21967C21.3897 9.07902 21.1989 9 21 9ZM0.75 11.25C0.551088 11.25 0.360322 11.329 0.21967 11.4697C0.0790176 11.6103 0 11.8011 0 12C0 12.1989 0.0790176 12.3897 0.21967 12.5303C0.360322 12.671 0.551088 12.75 0.75 12.75C0.948912 12.75 1.13968 12.671 1.28033 12.5303C1.42098 12.3897 1.5 12.1989 1.5 12C1.5 11.8011 1.42098 11.6103 1.28033 11.4697C1.13968 11.329 0.948912 11.25 0.75 11.25ZM23.25 9C23.0511 9 22.8603 9.07902 22.7197 9.21967C22.579 9.36032 22.5 9.55109 22.5 9.75C22.5 9.94891 22.579 10.1397 22.7197 10.2803C22.8603 10.421 23.0511 10.5 23.25 10.5C23.4489 10.5 23.6397 10.421 23.7803 10.2803C23.921 10.1397 24 9.94891 24 9.75C24 9.55109 23.921 9.36032 23.7803 9.21967C23.6397 9.07902 23.4489 9 23.25 9ZM23.25 11.25C23.0511 11.25 22.8603 11.329 22.7197 11.4697C22.579 11.6103 22.5 11.8011 22.5 12C22.5 12.1989 22.579 12.3897 22.7197 12.5303C22.8603 12.671 23.0511 12.75 23.25 12.75C23.4489 12.75 23.6397 12.671 23.7803 12.5303C23.921 12.3897 24 12.1989 24 12C24 11.8011 23.921 11.6103 23.7803 11.4697C23.6397 11.329 23.4489 11.25 23.25 11.25ZM9.75 13.5C9.55109 13.5 9.36032 13.579 9.21967 13.7197C9.07902 13.8603 9 14.0511 9 14.25C9 14.4489 9.07902 14.6397 9.21967 14.7803C9.36032 14.921 9.55109 15 9.75 15C9.94891 15 10.1397 14.921 10.2803 14.7803C10.421 14.6397 10.5 14.4489 10.5 14.25C10.5 14.0511 10.421 13.8603 10.2803 13.7197C10.1397 13.579 9.94891 13.5 9.75 13.5ZM9.75 15.75C9.55109 15.75 9.36032 15.829 9.21967 15.9697C9.07902 16.1103 9 16.3011 9 16.5C9 16.6989 9.07902 16.8897 9.21967 17.0303C9.36032 17.171 9.55109 17.25 9.75 17.25C9.94891 17.25 10.1397 17.171 10.2803 17.0303C10.421 16.8897 10.5 16.6989 10.5 16.5C10.5 16.3011 10.421 16.1103 10.2803 15.9697C10.1397 15.829 9.94891 15.75 9.75 15.75ZM9.75 9C9.55109 9 9.36032 9.07902 9.21967 9.21967C9.07902 9.36032 9 9.55109 9 9.75C9 9.94891 9.07902 10.1397 9.21967 10.2803C9.36032 10.421 9.55109 10.5 9.75 10.5C9.94891 10.5 10.1397 10.421 10.2803 10.2803C10.421 10.1397 10.5 9.94891 10.5 9.75C10.5 9.55109 10.421 9.36032 10.2803 9.21967C10.1397 9.07902 9.94891 9 9.75 9ZM9.75 11.25C9.55109 11.25 9.36032 11.329 9.21967 11.4697C9.07902 11.6103 9 11.8011 9 12C9 12.1989 9.07902 12.3897 9.21967 12.5303C9.36032 12.671 9.55109 12.75 9.75 12.75C9.94891 12.75 10.1397 12.671 10.2803 12.5303C10.421 12.3897 10.5 12.1989 10.5 12C10.5 11.8011 10.421 11.6103 10.2803 11.4697C10.1397 11.329 9.94891 11.25 9.75 11.25ZM14.25 13.5C14.0511 13.5 13.8603 13.579 13.7197 13.7197C13.579 13.8603 13.5 14.0511 13.5 14.25C13.5 14.4489 13.579 14.6397 13.7197 14.7803C13.8603 14.921 14.0511 15 14.25 15C14.4489 15 14.6397 14.921 14.7803 14.7803C14.921 14.6397 15 14.4489 15 14.25C15 14.0511 14.921 13.8603 14.7803 13.7197C14.6397 13.579 14.4489 13.5 14.25 13.5ZM14.25 15.75C14.0511 15.75 13.8603 15.829 13.7197 15.9697C13.579 16.1103 13.5 16.3011 13.5 16.5C13.5 16.6989 13.579 16.8897 13.7197 17.0303C13.8603 17.171 14.0511 17.25 14.25 17.25C14.4489 17.25 14.6397 17.171 14.7803 17.0303C14.921 16.8897 15 16.6989 15 16.5C15 16.3011 14.921 16.1103 14.7803 15.9697C14.6397 15.829 14.4489 15.75 14.25 15.75ZM14.25 9C14.0511 9 13.8603 9.07902 13.7197 9.21967C13.579 9.36032 13.5 9.55109 13.5 9.75C13.5 9.94891 13.579 10.1397 13.7197 10.2803C13.8603 10.421 14.0511 10.5 14.25 10.5C14.4489 10.5 14.6397 10.421 14.7803 10.2803C14.921 10.1397 15 9.94891 15 9.75C15 9.55109 14.921 9.36032 14.7803 9.21967C14.6397 9.07902 14.4489 9 14.25 9ZM14.25 11.25C14.0511 11.25 13.8603 11.329 13.7197 11.4697C13.579 11.6103 13.5 11.8011 13.5 12C13.5 12.1989 13.579 12.3897 13.7197 12.5303C13.8603 12.671 14.0511 12.75 14.25 12.75C14.4489 12.75 14.6397 12.671 14.7803 12.5303C14.921 12.3897 15 12.1989 15 12C15 11.8011 14.921 11.6103 14.7803 11.4697C14.6397 11.329 14.4489 11.25 14.25 11.25ZM9.75 6.75C9.55109 6.75 9.36032 6.82902 9.21967 6.96967C9.07902 7.11032 9 7.30109 9 7.5C9 7.69891 9.07902 7.88968 9.21967 8.03033C9.36032 8.17098 9.55109 8.25 9.75 8.25C9.94891 8.25 10.1397 8.17098 10.2803 8.03033C10.421 7.88968 10.5 7.69891 10.5 7.5C10.5 7.30109 10.421 7.11032 10.2803 6.96967C10.1397 6.82902 9.94891 6.75 9.75 6.75ZM14.25 6.75C14.0511 6.75 13.8603 6.82902 13.7197 6.96967C13.579 7.11032 13.5 7.30109 13.5 7.5C13.5 7.69891 13.579 7.88968 13.7197 8.03033C13.8603 8.17098 14.0511 8.25 14.25 8.25C14.4489 8.25 14.6397 8.17098 14.7803 8.03033C14.921 7.88968 15 7.69891 15 7.5C15 7.30109 14.921 7.11032 14.7803 6.96967C14.6397 6.82902 14.4489 6.75 14.25 6.75ZM16.5 4.5C16.3011 4.5 16.1103 4.57902 15.9697 4.71967C15.829 4.86032 15.75 5.05109 15.75 5.25C15.75 5.44891 15.829 5.63968 15.9697 5.78033C16.1103 5.92098 16.3011 6 16.5 6C16.6989 6 16.8897 5.92098 17.0303 5.78033C17.171 5.63968 17.25 5.44891 17.25 5.25C17.25 5.05109 17.171 4.86032 17.0303 4.71967C16.8897 4.57902 16.6989 4.5 16.5 4.5ZM18.75 2.25C18.5511 2.25 18.3603 2.32902 18.2197 2.46967C18.079 2.61032 18 2.80109 18 3C18 3.19891 18.079 3.38968 18.2197 3.53033C18.3603 3.67098 18.5511 3.75 18.75 3.75C18.9489 3.75 19.1397 3.67098 19.2803 3.53033C19.421 3.38968 19.5 3.19891 19.5 3C19.5 2.80109 19.421 2.61032 19.2803 2.46967C19.1397 2.32902 18.9489 2.25 18.75 2.25ZM21 0C20.8011 0 20.6103 0.0790176 20.4697 0.21967C20.329 0.360322 20.25 0.551088 20.25 0.75C20.25 0.948912 20.329 1.13968 20.4697 1.28033C20.6103 1.42098 20.8011 1.5 21 1.5C21.1989 1.5 21.3897 1.42098 21.5303 1.28033C21.671 1.13968 21.75 0.948912 21.75 0.75C21.75 0.551088 21.671 0.360322 21.5303 0.21967C21.3897 0.0790176 21.1989 0 21 0ZM21 2.25C20.8011 2.25 20.6103 2.32902 20.4697 2.46967C20.329 2.61032 20.25 2.80109 20.25 3C20.25 3.19891 20.329 3.38968 20.4697 3.53033C20.6103 3.67098 20.8011 3.75 21 3.75C21.1989 3.75 21.3897 3.67098 21.5303 3.53033C21.671 3.38968 21.75 3.19891 21.75 3C21.75 2.80109 21.671 2.61032 21.5303 2.46967C21.3897 2.32902 21.1989 2.25 21 2.25ZM21 4.5C20.8011 4.5 20.6103 4.57902 20.4697 4.71967C20.329 4.86032 20.25 5.05109 20.25 5.25C20.25 5.44891 20.329 5.63968 20.4697 5.78033C20.6103 5.92098 20.8011 6 21 6C21.1989 6 21.3897 5.92098 21.5303 5.78033C21.671 5.63968 21.75 5.44891 21.75 5.25C21.75 5.05109 21.671 4.86032 21.5303 4.71967C21.3897 4.57902 21.1989 4.5 21 4.5ZM18.75 0C18.5511 0 18.3603 0.0790176 18.2197 0.21967C18.079 0.360322 18 0.551088 18 0.75C18 0.948912 18.079 1.13968 18.2197 1.28033C18.3603 1.42098 18.5511 1.5 18.75 1.5C18.9489 1.5 19.1397 1.42098 19.2803 1.28033C19.421 1.13968 19.5 0.948912 19.5 0.75C19.5 0.551088 19.421 0.360322 19.2803 0.21967C19.1397 0.0790176 18.9489 0 18.75 0ZM16.5 0C16.3011 0 16.1103 0.0790176 15.9697 0.21967C15.829 0.360322 15.75 0.551088 15.75 0.75C15.75 0.948912 15.829 1.13968 15.9697 1.28033C16.1103 1.42098 16.3011 1.5 16.5 1.5C16.6989 1.5 16.8897 1.42098 17.0303 1.28033C17.171 1.13968 17.25 0.948912 17.25 0.75C17.25 0.551088 17.171 0.360322 17.0303 0.21967C16.8897 0.0790176 16.6989 0 16.5 0ZM7.5 4.5C7.30109 4.5 7.11032 4.57902 6.96967 4.71967C6.82902 4.86032 6.75 5.05109 6.75 5.25C6.75 5.44891 6.82902 5.63968 6.96967 5.78033C7.11032 5.92098 7.30109 6 7.5 6C7.69891 6 7.88968 5.92098 8.03033 5.78033C8.17098 5.63968 8.25 5.44891 8.25 5.25C8.25 5.05109 8.17098 4.86032 8.03033 4.71967C7.88968 4.57902 7.69891 4.5 7.5 4.5ZM5.25 2.25C5.05109 2.25 4.86032 2.32902 4.71967 2.46967C4.57902 2.61032 4.5 2.80109 4.5 3C4.5 3.19891 4.57902 3.38968 4.71967 3.53033C4.86032 3.67098 5.05109 3.75 5.25 3.75C5.44891 3.75 5.63968 3.67098 5.78033 3.53033C5.92098 3.38968 6 3.19891 6 3C6 2.80109 5.92098 2.61032 5.78033 2.46967C5.63968 2.32902 5.44891 2.25 5.25 2.25ZM3 0C2.80109 0 2.61032 0.0790176 2.46967 0.21967C2.32902 0.360322 2.25 0.551088 2.25 0.75C2.25 0.948912 2.32902 1.13968 2.46967 1.28033C2.61032 1.42098 2.80109 1.5 3 1.5C3.19891 1.5 3.38968 1.42098 3.53033 1.28033C3.67098 1.13968 3.75 0.948912 3.75 0.75C3.75 0.551088 3.67098 0.360322 3.53033 0.21967C3.38968 0.0790176 3.19891 0 3 0ZM3 2.25C2.80109 2.25 2.61032 2.32902 2.46967 2.46967C2.32902 2.61032 2.25 2.80109 2.25 3C2.25 3.19891 2.32902 3.38968 2.46967 3.53033C2.61032 3.67098 2.80109 3.75 3 3.75C3.19891 3.75 3.38968 3.67098 3.53033 3.53033C3.67098 3.38968 3.75 3.19891 3.75 3C3.75 2.80109 3.67098 2.61032 3.53033 2.46967C3.38968 2.32902 3.19891 2.25 3 2.25ZM3 4.5C2.80109 4.5 2.61032 4.57902 2.46967 4.71967C2.32902 4.86032 2.25 5.05109 2.25 5.25C2.25 5.44891 2.32902 5.63968 2.46967 5.78033C2.61032 5.92098 2.80109 6 3 6C3.19891 6 3.38968 5.92098 3.53033 5.78033C3.67098 5.63968 3.75 5.44891 3.75 5.25C3.75 5.05109 3.67098 4.86032 3.53033 4.71967C3.38968 4.57902 3.19891 4.5 3 4.5ZM5.25 0C5.05109 0 4.86032 0.0790176 4.71967 0.21967C4.57902 0.360322 4.5 0.551088 4.5 0.75C4.5 0.948912 4.57902 1.13968 4.71967 1.28033C4.86032 1.42098 5.05109 1.5 5.25 1.5C5.44891 1.5 5.63968 1.42098 5.78033 1.28033C5.92098 1.13968 6 0.948912 6 0.75C6 0.551088 5.92098 0.360322 5.78033 0.21967C5.63968 0.0790176 5.44891 0 5.25 0ZM7.5 0C7.30109 0 7.11032 0.0790176 6.96967 0.21967C6.82902 0.360322 6.75 0.551088 6.75 0.75C6.75 0.948912 6.82902 1.13968 6.96967 1.28033C7.11032 1.42098 7.30109 1.5 7.5 1.5C7.69891 1.5 7.88968 1.42098 8.03033 1.28033C8.17098 1.13968 8.25 0.948912 8.25 0.75C8.25 0.551088 8.17098 0.360322 8.03033 0.21967C7.88968 0.0790176 7.69891 0 7.5 0Z" fill="white"/>
</svg>
