<svg width="24" height="24" viewBox="0 0 24 24" fill="none" xmlns="http://www.w3.org/2000/svg">
<path d="M18.75 2.25C18.336 2.25 18 2.586 18 3C18 3.414 18.336 3.75 18.75 3.75C19.164 3.75 19.5 3.414 19.5 3C19.5 2.586 19.164 2.25 18.75 2.25ZM18.75 6.75C18.336 6.75 18 7.086 18 7.5C18 7.914 18.336 8.25 18.75 8.25C19.164 8.25 19.5 7.914 19.5 7.5C19.5 7.086 19.164 6.75 18.75 6.75ZM16.5 6.75C16.086 6.75 15.75 7.086 15.75 7.5C15.75 7.914 16.086 8.25 16.5 8.25C16.914 8.25 17.25 7.914 17.25 7.5C17.25 7.086 16.914 6.75 16.5 6.75ZM14.25 6.75C13.836 6.75 13.5 7.086 13.5 7.5C13.5 7.914 13.836 8.25 14.25 8.25C14.664 8.25 15 7.914 15 7.5C15 7.086 14.664 6.75 14.25 6.75ZM12 6.75C11.586 6.75 11.25 7.086 11.25 7.5C11.25 7.914 11.586 8.25 12 8.25C12.414 8.25 12.75 7.914 12.75 7.5C12.75 7.086 12.414 6.75 12 6.75ZM9.75 6.75C9.336 6.75 9 7.086 9 7.5C9 7.914 9.336 8.25 9.75 8.25C10.164 8.25 10.5 7.914 10.5 7.5C10.5 7.086 10.164 6.75 9.75 6.75ZM7.5 6.75C7.086 6.75 6.75 7.086 6.75 7.5C6.75 7.914 7.086 8.25 7.5 8.25C7.914 8.25 8.25 7.914 8.25 7.5C8.25 7.086 7.914 6.75 7.5 6.75ZM5.25 6.75C4.836 6.75 4.5 7.086 4.5 7.5C4.5 7.914 4.836 8.25 5.25 8.25C5.664 8.25 6 7.914 6 7.5C6 7.086 5.664 6.75 5.25 6.75ZM3 6.75C2.586 6.75 2.25 7.086 2.25 7.5C2.25 7.914 2.586 8.25 3 8.25C3.414 8.25 3.75 7.914 3.75 7.5C3.75 7.086 3.414 6.75 3 6.75ZM18.75 11.25C18.336 11.25 18 11.586 18 12C18 12.414 18.336 12.75 18.75 12.75C19.164 12.75 19.5 12.414 19.5 12C19.5 11.586 19.164 11.25 18.75 11.25ZM18.75 15.75C18.336 15.75 18 16.086 18 16.5C18 16.914 18.336 17.25 18.75 17.25C19.164 17.25 19.5 16.914 19.5 16.5C19.5 16.086 19.164 15.75 18.75 15.75ZM12 15.75C11.586 15.75 11.25 16.086 11.25 16.5C11.25 16.914 11.586 17.25 12 17.25C12.414 17.25 12.75 16.914 12.75 16.5C12.75 16.086 12.414 15.75 12 15.75ZM5.25 15.75C4.836 15.75 4.5 16.086 4.5 16.5C4.5 16.914 4.836 17.25 5.25 17.25C5.664 17.25 6 16.914 6 16.5C6 16.086 5.664 15.75 5.25 15.75ZM21 4.5C20.586 4.5 20.25 4.836 20.25 5.25C20.25 5.664 20.586 6 21 6C21.414 6 21.75 5.664 21.75 5.25C21.75 4.836 21.414 4.5 21 4.5ZM21 6.75C20.586 6.75 20.25 7.086 20.25 7.5C20.25 7.914 20.586 8.25 21 8.25C21.414 8.25 21.75 7.914 21.75 7.5C21.75 7.086 21.414 6.75 21 6.75ZM21 9C20.586 9 20.25 9.336 20.25 9.75C20.25 10.164 20.586 10.5 21 10.5C21.414 10.5 21.75 10.164 21.75 9.75C21.75 9.336 21.414 9 21 9ZM21 18C20.586 18 20.25 18.336 20.25 18.75C20.25 19.164 20.586 19.5 21 19.5C21.414 19.5 21.75 19.164 21.75 18.75C21.75 18.336 21.414 18 21 18ZM16.5 18C16.086 18 15.75 18.336 15.75 18.75C15.75 19.164 16.086 19.5 16.5 19.5C16.914 19.5 17.25 19.164 17.25 18.75C17.25 18.336 16.914 18 16.5 18ZM14.25 18C13.836 18 13.5 18.336 13.5 18.75C13.5 19.164 13.836 19.5 14.25 19.5C14.664 19.5 15 19.164 15 18.75C15 18.336 14.664 18 14.25 18ZM9.75 18C9.336 18 9 18.336 9 18.75C9 19.164 9.336 19.5 9.75 19.5C10.164 19.5 10.5 19.164 10.5 18.75C10.5 18.336 10.164 18 9.75 18ZM7.5 18C7.086 18 6.75 18.336 6.75 18.75C6.75 19.164 7.086 19.5 7.5 19.5C7.914 19.5 8.25 19.164 8.25 18.75C8.25 18.336 7.914 18 7.5 18ZM3 18C2.586 18 2.25 18.336 2.25 18.75C2.25 19.164 2.586 19.5 3 19.5C3.414 19.5 3.75 19.164 3.75 18.75C3.75 18.336 3.414 18 3 18ZM18.75 20.25C18.336 20.25 18 20.586 18 21C18 21.414 18.336 21.75 18.75 21.75C19.164 21.75 19.5 21.414 19.5 21C19.5 20.586 19.164 20.25 18.75 20.25ZM23.25 6.75C22.836 6.75 22.5 7.086 22.5 7.5C22.5 7.914 22.836 8.25 23.25 8.25C23.664 8.25 24 7.914 24 7.5C24 7.086 23.664 6.75 23.25 6.75ZM23.25 18C22.836 18 22.5 18.336 22.5 18.75C22.5 19.164 22.836 19.5 23.25 19.5C23.664 19.5 24 19.164 24 18.75C24 18.336 23.664 18 23.25 18ZM0.75 6.75C0.336 6.75 0 7.086 0 7.5C0 7.914 0.336 8.25 0.75 8.25C1.164 8.25 1.5 7.914 1.5 7.5C1.5 7.086 1.164 6.75 0.75 6.75ZM0.75 18C0.336 18 0 18.336 0 18.75C0 19.164 0.336 19.5 0.75 19.5C1.164 19.5 1.5 19.164 1.5 18.75C1.5 18.336 1.164 18 0.75 18ZM12 20.25C11.586 20.25 11.25 20.586 11.25 21C11.25 21.414 11.586 21.75 12 21.75C12.414 21.75 12.75 21.414 12.75 21C12.75 20.586 12.414 20.25 12 20.25ZM5.25 20.25C4.836 20.25 4.5 20.586 4.5 21C4.5 21.414 4.836 21.75 5.25 21.75C5.664 21.75 6 21.414 6 21C6 20.586 5.664 20.25 5.25 20.25Z" fill="white"/>
</svg>
