<svg width="24" height="24" viewBox="0 0 24 24" fill="none" xmlns="http://www.w3.org/2000/svg">
<path d="M14.25 11.25C14.0511 11.25 13.8603 11.329 13.7197 11.4697C13.579 11.6103 13.5 11.8011 13.5 12C13.5 12.1989 13.579 12.3897 13.7197 12.5303C13.8603 12.671 14.0511 12.75 14.25 12.75C14.4489 12.75 14.6397 12.671 14.7803 12.5303C14.921 12.3897 15 12.1989 15 12C15 11.8011 14.921 11.6103 14.7803 11.4697C14.6397 11.329 14.4489 11.25 14.25 11.25ZM12 11.25C11.8011 11.25 11.6103 11.329 11.4697 11.4697C11.329 11.6103 11.25 11.8011 11.25 12C11.25 12.1989 11.329 12.3897 11.4697 12.5303C11.6103 12.671 11.8011 12.75 12 12.75C12.1989 12.75 12.3897 12.671 12.5303 12.5303C12.671 12.3897 12.75 12.1989 12.75 12C12.75 11.8011 12.671 11.6103 12.5303 11.4697C12.3897 11.329 12.1989 11.25 12 11.25ZM14.25 15.75C14.0511 15.75 13.8603 15.829 13.7197 15.9697C13.579 16.1103 13.5 16.3011 13.5 16.5C13.5 16.6989 13.579 16.8897 13.7197 17.0303C13.8603 17.171 14.0511 17.25 14.25 17.25C14.4489 17.25 14.6397 17.171 14.7803 17.0303C14.921 16.8897 15 16.6989 15 16.5C15 16.3011 14.921 16.1103 14.7803 15.9697C14.6397 15.829 14.4489 15.75 14.25 15.75ZM12 15.75C11.8011 15.75 11.6103 15.829 11.4697 15.9697C11.329 16.1103 11.25 16.3011 11.25 16.5C11.25 16.6989 11.329 16.8897 11.4697 17.0303C11.6103 17.171 11.8011 17.25 12 17.25C12.1989 17.25 12.3897 17.171 12.5303 17.0303C12.671 16.8897 12.75 16.6989 12.75 16.5C12.75 16.3011 12.671 16.1103 12.5303 15.9697C12.3897 15.829 12.1989 15.75 12 15.75ZM14.25 18C14.0511 18 13.8603 18.079 13.7197 18.2197C13.579 18.3603 13.5 18.5511 13.5 18.75C13.5 18.9489 13.579 19.1397 13.7197 19.2803C13.8603 19.421 14.0511 19.5 14.25 19.5C14.4489 19.5 14.6397 19.421 14.7803 19.2803C14.921 19.1397 15 18.9489 15 18.75C15 18.5511 14.921 18.3603 14.7803 18.2197C14.6397 18.079 14.4489 18 14.25 18ZM16.5 15.75C16.3011 15.75 16.1103 15.829 15.9697 15.9697C15.829 16.1103 15.75 16.3011 15.75 16.5C15.75 16.6989 15.829 16.8897 15.9697 17.0303C16.1103 17.171 16.3011 17.25 16.5 17.25C16.6989 17.25 16.8897 17.171 17.0303 17.0303C17.171 16.8897 17.25 16.6989 17.25 16.5C17.25 16.3011 17.171 16.1103 17.0303 15.9697C16.8897 15.829 16.6989 15.75 16.5 15.75ZM16.5 18C16.3011 18 16.1103 18.079 15.9697 18.2197C15.829 18.3603 15.75 18.5511 15.75 18.75C15.75 18.9489 15.829 19.1397 15.9697 19.2803C16.1103 19.421 16.3011 19.5 16.5 19.5C16.6989 19.5 16.8897 19.421 17.0303 19.2803C17.171 19.1397 17.25 18.9489 17.25 18.75C17.25 18.5511 17.171 18.3603 17.0303 18.2197C16.8897 18.079 16.6989 18 16.5 18ZM12 18C11.8011 18 11.6103 18.079 11.4697 18.2197C11.329 18.3603 11.25 18.5511 11.25 18.75C11.25 18.9489 11.329 19.1397 11.4697 19.2803C11.6103 19.421 11.8011 19.5 12 19.5C12.1989 19.5 12.3897 19.421 12.5303 19.2803C12.671 19.1397 12.75 18.9489 12.75 18.75C12.75 18.5511 12.671 18.3603 12.5303 18.2197C12.3897 18.079 12.1989 18 12 18ZM9.75 11.25C9.55109 11.25 9.36032 11.329 9.21967 11.4697C9.07902 11.6103 9 11.8011 9 12C9 12.1989 9.07902 12.3897 9.21967 12.5303C9.36032 12.671 9.55109 12.75 9.75 12.75C9.94891 12.75 10.1397 12.671 10.2803 12.5303C10.421 12.3897 10.5 12.1989 10.5 12C10.5 11.8011 10.421 11.6103 10.2803 11.4697C10.1397 11.329 9.94891 11.25 9.75 11.25ZM14.25 13.5C14.0511 13.5 13.8603 13.579 13.7197 13.7197C13.579 13.8603 13.5 14.0511 13.5 14.25C13.5 14.4489 13.579 14.6397 13.7197 14.7803C13.8603 14.921 14.0511 15 14.25 15C14.4489 15 14.6397 14.921 14.7803 14.7803C14.921 14.6397 15 14.4489 15 14.25C15 14.0511 14.921 13.8603 14.7803 13.7197C14.6397 13.579 14.4489 13.5 14.25 13.5ZM9.75 15.75C9.55109 15.75 9.36032 15.829 9.21967 15.9697C9.07902 16.1103 9 16.3011 9 16.5C9 16.6989 9.07902 16.8897 9.21967 17.0303C9.36032 17.171 9.55109 17.25 9.75 17.25C9.94891 17.25 10.1397 17.171 10.2803 17.0303C10.421 16.8897 10.5 16.6989 10.5 16.5C10.5 16.3011 10.421 16.1103 10.2803 15.9697C10.1397 15.829 9.94891 15.75 9.75 15.75ZM9.75 18C9.55109 18 9.36032 18.079 9.21967 18.2197C9.07902 18.3603 9 18.5511 9 18.75C9 18.9489 9.07902 19.1397 9.21967 19.2803C9.36032 19.421 9.55109 19.5 9.75 19.5C9.94891 19.5 10.1397 19.421 10.2803 19.2803C10.421 19.1397 10.5 18.9489 10.5 18.75C10.5 18.5511 10.421 18.3603 10.2803 18.2197C10.1397 18.079 9.94891 18 9.75 18ZM14.25 20.25C14.0511 20.25 13.8603 20.329 13.7197 20.4697C13.579 20.6103 13.5 20.8011 13.5 21C13.5 21.1989 13.579 21.3897 13.7197 21.5303C13.8603 21.671 14.0511 21.75 14.25 21.75C14.4489 21.75 14.6397 21.671 14.7803 21.5303C14.921 21.3897 15 21.1989 15 21C15 20.8011 14.921 20.6103 14.7803 20.4697C14.6397 20.329 14.4489 20.25 14.25 20.25ZM16.5 20.25C16.3011 20.25 16.1103 20.329 15.9697 20.4697C15.829 20.6103 15.75 20.8011 15.75 21C15.75 21.1989 15.829 21.3897 15.9697 21.5303C16.1103 21.671 16.3011 21.75 16.5 21.75C16.6989 21.75 16.8897 21.671 17.0303 21.5303C17.171 21.3897 17.25 21.1989 17.25 21C17.25 20.8011 17.171 20.6103 17.0303 20.4697C16.8897 20.329 16.6989 20.25 16.5 20.25ZM12 20.25C11.8011 20.25 11.6103 20.329 11.4697 20.4697C11.329 20.6103 11.25 20.8011 11.25 21C11.25 21.1989 11.329 21.3897 11.4697 21.5303C11.6103 21.671 11.8011 21.75 12 21.75C12.1989 21.75 12.3897 21.671 12.5303 21.5303C12.671 21.3897 12.75 21.1989 12.75 21C12.75 20.8011 12.671 20.6103 12.5303 20.4697C12.3897 20.329 12.1989 20.25 12 20.25ZM9.75 20.25C9.55109 20.25 9.36032 20.329 9.21967 20.4697C9.07902 20.6103 9 20.8011 9 21C9 21.1989 9.07902 21.3897 9.21967 21.5303C9.36032 21.671 9.55109 21.75 9.75 21.75C9.94891 21.75 10.1397 21.671 10.2803 21.5303C10.421 21.3897 10.5 21.1989 10.5 21C10.5 20.8011 10.421 20.6103 10.2803 20.4697C10.1397 20.329 9.94891 20.25 9.75 20.25ZM16.5 11.25C16.3011 11.25 16.1103 11.329 15.9697 11.4697C15.829 11.6103 15.75 11.8011 15.75 12C15.75 12.1989 15.829 12.3897 15.9697 12.5303C16.1103 12.671 16.3011 12.75 16.5 12.75C16.6989 12.75 16.8897 12.671 17.0303 12.5303C17.171 12.3897 17.25 12.1989 17.25 12C17.25 11.8011 17.171 11.6103 17.0303 11.4697C16.8897 11.329 16.6989 11.25 16.5 11.25ZM16.5 13.5C16.3011 13.5 16.1103 13.579 15.9697 13.7197C15.829 13.8603 15.75 14.0511 15.75 14.25C15.75 14.4489 15.829 14.6397 15.9697 14.7803C16.1103 14.921 16.3011 15 16.5 15C16.6989 15 16.8897 14.921 17.0303 14.7803C17.171 14.6397 17.25 14.4489 17.25 14.25C17.25 14.0511 17.171 13.8603 17.0303 13.7197C16.8897 13.579 16.6989 13.5 16.5 13.5ZM9.75 13.5C9.55109 13.5 9.36032 13.579 9.21967 13.7197C9.07902 13.8603 9 14.0511 9 14.25C9 14.4489 9.07902 14.6397 9.21967 14.7803C9.36032 14.921 9.55109 15 9.75 15C9.94891 15 10.1397 14.921 10.2803 14.7803C10.421 14.6397 10.5 14.4489 10.5 14.25C10.5 14.0511 10.421 13.8603 10.2803 13.7197C10.1397 13.579 9.94891 13.5 9.75 13.5ZM7.5 11.25C7.30109 11.25 7.11032 11.329 6.96967 11.4697C6.82902 11.6103 6.75 11.8011 6.75 12C6.75 12.1989 6.82902 12.3897 6.96967 12.5303C7.11032 12.671 7.30109 12.75 7.5 12.75C7.69891 12.75 7.88968 12.671 8.03033 12.5303C8.17098 12.3897 8.25 12.1989 8.25 12C8.25 11.8011 8.17098 11.6103 8.03033 11.4697C7.88968 11.329 7.69891 11.25 7.5 11.25ZM7.5 15.75C7.30109 15.75 7.11032 15.829 6.96967 15.9697C6.82902 16.1103 6.75 16.3011 6.75 16.5C6.75 16.6989 6.82902 16.8897 6.96967 17.0303C7.11032 17.171 7.30109 17.25 7.5 17.25C7.69891 17.25 7.88968 17.171 8.03033 17.0303C8.17098 16.8897 8.25 16.6989 8.25 16.5C8.25 16.3011 8.17098 16.1103 8.03033 15.9697C7.88968 15.829 7.69891 15.75 7.5 15.75ZM7.5 18C7.30109 18 7.11032 18.079 6.96967 18.2197C6.82902 18.3603 6.75 18.5511 6.75 18.75C6.75 18.9489 6.82902 19.1397 6.96967 19.2803C7.11032 19.421 7.30109 19.5 7.5 19.5C7.69891 19.5 7.88968 19.421 8.03033 19.2803C8.17098 19.1397 8.25 18.9489 8.25 18.75C8.25 18.5511 8.17098 18.3603 8.03033 18.2197C7.88968 18.079 7.69891 18 7.5 18ZM7.5 20.25C7.30109 20.25 7.11032 20.329 6.96967 20.4697C6.82902 20.6103 6.75 20.8011 6.75 21C6.75 21.1989 6.82902 21.3897 6.96967 21.5303C7.11032 21.671 7.30109 21.75 7.5 21.75C7.69891 21.75 7.88968 21.671 8.03033 21.5303C8.17098 21.3897 8.25 21.1989 8.25 21C8.25 20.8011 8.17098 20.6103 8.03033 20.4697C7.88968 20.329 7.69891 20.25 7.5 20.25ZM7.5 13.5C7.30109 13.5 7.11032 13.579 6.96967 13.7197C6.82902 13.8603 6.75 14.0511 6.75 14.25C6.75 14.4489 6.82902 14.6397 6.96967 14.7803C7.11032 14.921 7.30109 15 7.5 15C7.69891 15 7.88968 14.921 8.03033 14.7803C8.17098 14.6397 8.25 14.4489 8.25 14.25C8.25 14.0511 8.17098 13.8603 8.03033 13.7197C7.88968 13.579 7.69891 13.5 7.5 13.5ZM5.25 11.25C5.05109 11.25 4.86032 11.329 4.71967 11.4697C4.57902 11.6103 4.5 11.8011 4.5 12C4.5 12.1989 4.57902 12.3897 4.71967 12.5303C4.86032 12.671 5.05109 12.75 5.25 12.75C5.44891 12.75 5.63968 12.671 5.78033 12.5303C5.92098 12.3897 6 12.1989 6 12C6 11.8011 5.92098 11.6103 5.78033 11.4697C5.63968 11.329 5.44891 11.25 5.25 11.25ZM5.25 15.75C5.05109 15.75 4.86032 15.829 4.71967 15.9697C4.57902 16.1103 4.5 16.3011 4.5 16.5C4.5 16.6989 4.57902 16.8897 4.71967 17.0303C4.86032 17.171 5.05109 17.25 5.25 17.25C5.44891 17.25 5.63968 17.171 5.78033 17.0303C5.92098 16.8897 6 16.6989 6 16.5C6 16.3011 5.92098 16.1103 5.78033 15.9697C5.63968 15.829 5.44891 15.75 5.25 15.75ZM5.25 18C5.05109 18 4.86032 18.079 4.71967 18.2197C4.57902 18.3603 4.5 18.5511 4.5 18.75C4.5 18.9489 4.57902 19.1397 4.71967 19.2803C4.86032 19.421 5.05109 19.5 5.25 19.5C5.44891 19.5 5.63968 19.421 5.78033 19.2803C5.92098 19.1397 6 18.9489 6 18.75C6 18.5511 5.92098 18.3603 5.78033 18.2197C5.63968 18.079 5.44891 18 5.25 18ZM5.25 20.25C5.05109 20.25 4.86032 20.329 4.71967 20.4697C4.57902 20.6103 4.5 20.8011 4.5 21C4.5 21.1989 4.57902 21.3897 4.71967 21.5303C4.86032 21.671 5.05109 21.75 5.25 21.75C5.44891 21.75 5.63968 21.671 5.78033 21.5303C5.92098 21.3897 6 21.1989 6 21C6 20.8011 5.92098 20.6103 5.78033 20.4697C5.63968 20.329 5.44891 20.25 5.25 20.25ZM5.25 13.5C5.05109 13.5 4.86032 13.579 4.71967 13.7197C4.57902 13.8603 4.5 14.0511 4.5 14.25C4.5 14.4489 4.57902 14.6397 4.71967 14.7803C4.86032 14.921 5.05109 15 5.25 15C5.44891 15 5.63968 14.921 5.78033 14.7803C5.92098 14.6397 6 14.4489 6 14.25C6 14.0511 5.92098 13.8603 5.78033 13.7197C5.63968 13.579 5.44891 13.5 5.25 13.5ZM12 13.5C11.8011 13.5 11.6103 13.579 11.4697 13.7197C11.329 13.8603 11.25 14.0511 11.25 14.25C11.25 14.4489 11.329 14.6397 11.4697 14.7803C11.6103 14.921 11.8011 15 12 15C12.1989 15 12.3897 14.921 12.5303 14.7803C12.671 14.6397 12.75 14.4489 12.75 14.25C12.75 14.0511 12.671 13.8603 12.5303 13.7197C12.3897 13.579 12.1989 13.5 12 13.5ZM14.25 9C14.0511 9 13.8603 9.07902 13.7197 9.21967C13.579 9.36032 13.5 9.55109 13.5 9.75C13.5 9.94891 13.579 10.1397 13.7197 10.2803C13.8603 10.421 14.0511 10.5 14.25 10.5C14.4489 10.5 14.6397 10.421 14.7803 10.2803C14.921 10.1397 15 9.94891 15 9.75C15 9.55109 14.921 9.36032 14.7803 9.21967C14.6397 9.07902 14.4489 9 14.25 9ZM16.5 9C16.3011 9 16.1103 9.07902 15.9697 9.21967C15.829 9.36032 15.75 9.55109 15.75 9.75C15.75 9.94891 15.829 10.1397 15.9697 10.2803C16.1103 10.421 16.3011 10.5 16.5 10.5C16.6989 10.5 16.8897 10.421 17.0303 10.2803C17.171 10.1397 17.25 9.94891 17.25 9.75C17.25 9.55109 17.171 9.36032 17.0303 9.21967C16.8897 9.07902 16.6989 9 16.5 9ZM14.25 6.75C14.0511 6.75 13.8603 6.82902 13.7197 6.96967C13.579 7.11032 13.5 7.30109 13.5 7.5C13.5 7.69891 13.579 7.88968 13.7197 8.03033C13.8603 8.17098 14.0511 8.25 14.25 8.25C14.4489 8.25 14.6397 8.17098 14.7803 8.03033C14.921 7.88968 15 7.69891 15 7.5C15 7.30109 14.921 7.11032 14.7803 6.96967C14.6397 6.82902 14.4489 6.75 14.25 6.75ZM16.5 6.75C16.3011 6.75 16.1103 6.82902 15.9697 6.96967C15.829 7.11032 15.75 7.30109 15.75 7.5C15.75 7.69891 15.829 7.88968 15.9697 8.03033C16.1103 8.17098 16.3011 8.25 16.5 8.25C16.6989 8.25 16.8897 8.17098 17.0303 8.03033C17.171 7.88968 17.25 7.69891 17.25 7.5C17.25 7.30109 17.171 7.11032 17.0303 6.96967C16.8897 6.82902 16.6989 6.75 16.5 6.75ZM18.75 15.75C18.5511 15.75 18.3603 15.829 18.2197 15.9697C18.079 16.1103 18 16.3011 18 16.5C18 16.6989 18.079 16.8897 18.2197 17.0303C18.3603 17.171 18.5511 17.25 18.75 17.25C18.9489 17.25 19.1397 17.171 19.2803 17.0303C19.421 16.8897 19.5 16.6989 19.5 16.5C19.5 16.3011 19.421 16.1103 19.2803 15.9697C19.1397 15.829 18.9489 15.75 18.75 15.75ZM18.75 18C18.5511 18 18.3603 18.079 18.2197 18.2197C18.079 18.3603 18 18.5511 18 18.75C18 18.9489 18.079 19.1397 18.2197 19.2803C18.3603 19.421 18.5511 19.5 18.75 19.5C18.9489 19.5 19.1397 19.421 19.2803 19.2803C19.421 19.1397 19.5 18.9489 19.5 18.75C19.5 18.5511 19.421 18.3603 19.2803 18.2197C19.1397 18.079 18.9489 18 18.75 18ZM18.75 20.25C18.5511 20.25 18.3603 20.329 18.2197 20.4697C18.079 20.6103 18 20.8011 18 21C18 21.1989 18.079 21.3897 18.2197 21.5303C18.3603 21.671 18.5511 21.75 18.75 21.75C18.9489 21.75 19.1397 21.671 19.2803 21.5303C19.421 21.3897 19.5 21.1989 19.5 21C19.5 20.8011 19.421 20.6103 19.2803 20.4697C19.1397 20.329 18.9489 20.25 18.75 20.25ZM18.75 11.25C18.5511 11.25 18.3603 11.329 18.2197 11.4697C18.079 11.6103 18 11.8011 18 12C18 12.1989 18.079 12.3897 18.2197 12.5303C18.3603 12.671 18.5511 12.75 18.75 12.75C18.9489 12.75 19.1397 12.671 19.2803 12.5303C19.421 12.3897 19.5 12.1989 19.5 12C19.5 11.8011 19.421 11.6103 19.2803 11.4697C19.1397 11.329 18.9489 11.25 18.75 11.25ZM18.75 13.5C18.5511 13.5 18.3603 13.579 18.2197 13.7197C18.079 13.8603 18 14.0511 18 14.25C18 14.4489 18.079 14.6397 18.2197 14.7803C18.3603 14.921 18.5511 15 18.75 15C18.9489 15 19.1397 14.921 19.2803 14.7803C19.421 14.6397 19.5 14.4489 19.5 14.25C19.5 14.0511 19.421 13.8603 19.2803 13.7197C19.1397 13.579 18.9489 13.5 18.75 13.5ZM18.75 9C18.5511 9 18.3603 9.07902 18.2197 9.21967C18.079 9.36032 18 9.55109 18 9.75C18 9.94891 18.079 10.1397 18.2197 10.2803C18.3603 10.421 18.5511 10.5 18.75 10.5C18.9489 10.5 19.1397 10.421 19.2803 10.2803C19.421 10.1397 19.5 9.94891 19.5 9.75C19.5 9.55109 19.421 9.36032 19.2803 9.21967C19.1397 9.07902 18.9489 9 18.75 9ZM18.75 6.75C18.5511 6.75 18.3603 6.82902 18.2197 6.96967C18.079 7.11032 18 7.30109 18 7.5C18 7.69891 18.079 7.88968 18.2197 8.03033C18.3603 8.17098 18.5511 8.25 18.75 8.25C18.9489 8.25 19.1397 8.17098 19.2803 8.03033C19.421 7.88968 19.5 7.69891 19.5 7.5C19.5 7.30109 19.421 7.11032 19.2803 6.96967C19.1397 6.82902 18.9489 6.75 18.75 6.75ZM12 9C11.8011 9 11.6103 9.07902 11.4697 9.21967C11.329 9.36032 11.25 9.55109 11.25 9.75C11.25 9.94891 11.329 10.1397 11.4697 10.2803C11.6103 10.421 11.8011 10.5 12 10.5C12.1989 10.5 12.3897 10.421 12.5303 10.2803C12.671 10.1397 12.75 9.94891 12.75 9.75C12.75 9.55109 12.671 9.36032 12.5303 9.21967C12.3897 9.07902 12.1989 9 12 9ZM12 6.75C11.8011 6.75 11.6103 6.82902 11.4697 6.96967C11.329 7.11032 11.25 7.30109 11.25 7.5C11.25 7.69891 11.329 7.88968 11.4697 8.03033C11.6103 8.17098 11.8011 8.25 12 8.25C12.1989 8.25 12.3897 8.17098 12.5303 8.03033C12.671 7.88968 12.75 7.69891 12.75 7.5C12.75 7.30109 12.671 7.11032 12.5303 6.96967C12.3897 6.82902 12.1989 6.75 12 6.75ZM5.25 9C5.05109 9 4.86032 9.07902 4.71967 9.21967C4.57902 9.36032 4.5 9.55109 4.5 9.75C4.5 9.94891 4.57902 10.1397 4.71967 10.2803C4.86032 10.421 5.05109 10.5 5.25 10.5C5.44891 10.5 5.63968 10.421 5.78033 10.2803C5.92098 10.1397 6 9.94891 6 9.75C6 9.55109 5.92098 9.36032 5.78033 9.21967C5.63968 9.07902 5.44891 9 5.25 9ZM5.25 6.75C5.05109 6.75 4.86032 6.82902 4.71967 6.96967C4.57902 7.11032 4.5 7.30109 4.5 7.5C4.5 7.69891 4.57902 7.88968 4.71967 8.03033C4.86032 8.17098 5.05109 8.25 5.25 8.25C5.44891 8.25 5.63968 8.17098 5.78033 8.03033C5.92098 7.88968 6 7.69891 6 7.5C6 7.30109 5.92098 7.11032 5.78033 6.96967C5.63968 6.82902 5.44891 6.75 5.25 6.75ZM14.25 4.5C14.0511 4.5 13.8603 4.57902 13.7197 4.71967C13.579 4.86032 13.5 5.05109 13.5 5.25C13.5 5.44891 13.579 5.63968 13.7197 5.78033C13.8603 5.92098 14.0511 6 14.25 6C14.4489 6 14.6397 5.92098 14.7803 5.78033C14.921 5.63968 15 5.44891 15 5.25C15 5.05109 14.921 4.86032 14.7803 4.71967C14.6397 4.57902 14.4489 4.5 14.25 4.5ZM12 4.5C11.8011 4.5 11.6103 4.57902 11.4697 4.71967C11.329 4.86032 11.25 5.05109 11.25 5.25C11.25 5.44891 11.329 5.63968 11.4697 5.78033C11.6103 5.92098 11.8011 6 12 6C12.1989 6 12.3897 5.92098 12.5303 5.78033C12.671 5.63968 12.75 5.44891 12.75 5.25C12.75 5.05109 12.671 4.86032 12.5303 4.71967C12.3897 4.57902 12.1989 4.5 12 4.5ZM16.5 4.5C16.3011 4.5 16.1103 4.57902 15.9697 4.71967C15.829 4.86032 15.75 5.05109 15.75 5.25C15.75 5.44891 15.829 5.63968 15.9697 5.78033C16.1103 5.92098 16.3011 6 16.5 6C16.6989 6 16.8897 5.92098 17.0303 5.78033C17.171 5.63968 17.25 5.44891 17.25 5.25C17.25 5.05109 17.171 4.86032 17.0303 4.71967C16.8897 4.57902 16.6989 4.5 16.5 4.5ZM14.25 2.25C14.0511 2.25 13.8603 2.32902 13.7197 2.46967C13.579 2.61032 13.5 2.80109 13.5 3C13.5 3.19891 13.579 3.38968 13.7197 3.53033C13.8603 3.67098 14.0511 3.75 14.25 3.75C14.4489 3.75 14.6397 3.67098 14.7803 3.53033C14.921 3.38968 15 3.19891 15 3C15 2.80109 14.921 2.61032 14.7803 2.46967C14.6397 2.32902 14.4489 2.25 14.25 2.25ZM9.75 4.5C9.55109 4.5 9.36032 4.57902 9.21967 4.71967C9.07902 4.86032 9 5.05109 9 5.25C9 5.44891 9.07902 5.63968 9.21967 5.78033C9.36032 5.92098 9.55109 6 9.75 6C9.94891 6 10.1397 5.92098 10.2803 5.78033C10.421 5.63968 10.5 5.44891 10.5 5.25C10.5 5.05109 10.421 4.86032 10.2803 4.71967C10.1397 4.57902 9.94891 4.5 9.75 4.5ZM16.5 2.25C16.3011 2.25 16.1103 2.32902 15.9697 2.46967C15.829 2.61032 15.75 2.80109 15.75 3C15.75 3.19891 15.829 3.38968 15.9697 3.53033C16.1103 3.67098 16.3011 3.75 16.5 3.75C16.6989 3.75 16.8897 3.67098 17.0303 3.53033C17.171 3.38968 17.25 3.19891 17.25 3C17.25 2.80109 17.171 2.61032 17.0303 2.46967C16.8897 2.32902 16.6989 2.25 16.5 2.25ZM18.75 4.5C18.5511 4.5 18.3603 4.57902 18.2197 4.71967C18.079 4.86032 18 5.05109 18 5.25C18 5.44891 18.079 5.63968 18.2197 5.78033C18.3603 5.92098 18.5511 6 18.75 6C18.9489 6 19.1397 5.92098 19.2803 5.78033C19.421 5.63968 19.5 5.44891 19.5 5.25C19.5 5.05109 19.421 4.86032 19.2803 4.71967C19.1397 4.57902 18.9489 4.5 18.75 4.5ZM18.75 2.25C18.5511 2.25 18.3603 2.32902 18.2197 2.46967C18.079 2.61032 18 2.80109 18 3C18 3.19891 18.079 3.38968 18.2197 3.53033C18.3603 3.67098 18.5511 3.75 18.75 3.75C18.9489 3.75 19.1397 3.67098 19.2803 3.53033C19.421 3.38968 19.5 3.19891 19.5 3C19.5 2.80109 19.421 2.61032 19.2803 2.46967C19.1397 2.32902 18.9489 2.25 18.75 2.25ZM9.75 2.25C9.55109 2.25 9.36032 2.32902 9.21967 2.46967C9.07902 2.61032 9 2.80109 9 3C9 3.19891 9.07902 3.38968 9.21967 3.53033C9.36032 3.67098 9.55109 3.75 9.75 3.75C9.94891 3.75 10.1397 3.67098 10.2803 3.53033C10.421 3.38968 10.5 3.19891 10.5 3C10.5 2.80109 10.421 2.61032 10.2803 2.46967C10.1397 2.32902 9.94891 2.25 9.75 2.25ZM7.5 4.5C7.30109 4.5 7.11032 4.57902 6.96967 4.71967C6.82902 4.86032 6.75 5.05109 6.75 5.25C6.75 5.44891 6.82902 5.63968 6.96967 5.78033C7.11032 5.92098 7.30109 6 7.5 6C7.69891 6 7.88968 5.92098 8.03033 5.78033C8.17098 5.63968 8.25 5.44891 8.25 5.25C8.25 5.05109 8.17098 4.86032 8.03033 4.71967C7.88968 4.57902 7.69891 4.5 7.5 4.5ZM7.5 2.25C7.30109 2.25 7.11032 2.32902 6.96967 2.46967C6.82902 2.61032 6.75 2.80109 6.75 3C6.75 3.19891 6.82902 3.38968 6.96967 3.53033C7.11032 3.67098 7.30109 3.75 7.5 3.75C7.69891 3.75 7.88968 3.67098 8.03033 3.53033C8.17098 3.38968 8.25 3.19891 8.25 3C8.25 2.80109 8.17098 2.61032 8.03033 2.46967C7.88968 2.32902 7.69891 2.25 7.5 2.25ZM5.25 4.5C5.05109 4.5 4.86032 4.57902 4.71967 4.71967C4.57902 4.86032 4.5 5.05109 4.5 5.25C4.5 5.44891 4.57902 5.63968 4.71967 5.78033C4.86032 5.92098 5.05109 6 5.25 6C5.44891 6 5.63968 5.92098 5.78033 5.78033C5.92098 5.63968 6 5.44891 6 5.25C6 5.05109 5.92098 4.86032 5.78033 4.71967C5.63968 4.57902 5.44891 4.5 5.25 4.5ZM3 4.5C2.80109 4.5 2.61032 4.57902 2.46967 4.71967C2.32902 4.86032 2.25 5.05109 2.25 5.25C2.25 5.44891 2.32902 5.63968 2.46967 5.78033C2.61032 5.92098 2.80109 6 3 6C3.19891 6 3.38968 5.92098 3.53033 5.78033C3.67098 5.63968 3.75 5.44891 3.75 5.25C3.75 5.05109 3.67098 4.86032 3.53033 4.71967C3.38968 4.57902 3.19891 4.5 3 4.5ZM3 9C2.80109 9 2.61032 9.07902 2.46967 9.21967C2.32902 9.36032 2.25 9.55109 2.25 9.75C2.25 9.94891 2.32902 10.1397 2.46967 10.2803C2.61032 10.421 2.80109 10.5 3 10.5C3.19891 10.5 3.38968 10.421 3.53033 10.2803C3.67098 10.1397 3.75 9.94891 3.75 9.75C3.75 9.55109 3.67098 9.36032 3.53033 9.21967C3.38968 9.07902 3.19891 9 3 9ZM3 13.5C2.80109 13.5 2.61032 13.579 2.46967 13.7197C2.32902 13.8603 2.25 14.0511 2.25 14.25C2.25 14.4489 2.32902 14.6397 2.46967 14.7803C2.61032 14.921 2.80109 15 3 15C3.19891 15 3.38968 14.921 3.53033 14.7803C3.67098 14.6397 3.75 14.4489 3.75 14.25C3.75 14.0511 3.67098 13.8603 3.53033 13.7197C3.38968 13.579 3.19891 13.5 3 13.5ZM3 18C2.80109 18 2.61032 18.079 2.46967 18.2197C2.32902 18.3603 2.25 18.5511 2.25 18.75C2.25 18.9489 2.32902 19.1397 2.46967 19.2803C2.61032 19.421 2.80109 19.5 3 19.5C3.19891 19.5 3.38968 19.421 3.53033 19.2803C3.67098 19.1397 3.75 18.9489 3.75 18.75C3.75 18.5511 3.67098 18.3603 3.53033 18.2197C3.38968 18.079 3.19891 18 3 18ZM0.75 4.5C0.551088 4.5 0.360322 4.57902 0.21967 4.71967C0.0790176 4.86032 0 5.05109 0 5.25C0 5.44891 0.0790176 5.63968 0.21967 5.78033C0.360322 5.92098 0.551088 6 0.75 6C0.948912 6 1.13968 5.92098 1.28033 5.78033C1.42098 5.63968 1.5 5.44891 1.5 5.25C1.5 5.05109 1.42098 4.86032 1.28033 4.71967C1.13968 4.57902 0.948912 4.5 0.75 4.5ZM0.75 9C0.551088 9 0.360322 9.07902 0.21967 9.21967C0.0790176 9.36032 0 9.55109 0 9.75C0 9.94891 0.0790176 10.1397 0.21967 10.2803C0.360322 10.421 0.551088 10.5 0.75 10.5C0.948912 10.5 1.13968 10.421 1.28033 10.2803C1.42098 10.1397 1.5 9.94891 1.5 9.75C1.5 9.55109 1.42098 9.36032 1.28033 9.21967C1.13968 9.07902 0.948912 9 0.75 9ZM0.75 13.5C0.551088 13.5 0.360322 13.579 0.21967 13.7197C0.0790176 13.8603 0 14.0511 0 14.25C0 14.4489 0.0790176 14.6397 0.21967 14.7803C0.360322 14.921 0.551088 15 0.75 15C0.948912 15 1.13968 14.921 1.28033 14.7803C1.42098 14.6397 1.5 14.4489 1.5 14.25C1.5 14.0511 1.42098 13.8603 1.28033 13.7197C1.13968 13.579 0.948912 13.5 0.75 13.5ZM0.75 18C0.551088 18 0.360322 18.079 0.21967 18.2197C0.0790176 18.3603 0 18.5511 0 18.75C0 18.9489 0.0790176 19.1397 0.21967 19.2803C0.360322 19.421 0.551088 19.5 0.75 19.5C0.948912 19.5 1.13968 19.421 1.28033 19.2803C1.42098 19.1397 1.5 18.9489 1.5 18.75C1.5 18.5511 1.42098 18.3603 1.28033 18.2197C1.13968 18.079 0.948912 18 0.75 18ZM21 4.5C20.8011 4.5 20.6103 4.57902 20.4697 4.71967C20.329 4.86032 20.25 5.05109 20.25 5.25C20.25 5.44891 20.329 5.63968 20.4697 5.78033C20.6103 5.92098 20.8011 6 21 6C21.1989 6 21.3897 5.92098 21.5303 5.78033C21.671 5.63968 21.75 5.44891 21.75 5.25C21.75 5.05109 21.671 4.86032 21.5303 4.71967C21.3897 4.57902 21.1989 4.5 21 4.5ZM21 9C20.8011 9 20.6103 9.07902 20.4697 9.21967C20.329 9.36032 20.25 9.55109 20.25 9.75C20.25 9.94891 20.329 10.1397 20.4697 10.2803C20.6103 10.421 20.8011 10.5 21 10.5C21.1989 10.5 21.3897 10.421 21.5303 10.2803C21.671 10.1397 21.75 9.94891 21.75 9.75C21.75 9.55109 21.671 9.36032 21.5303 9.21967C21.3897 9.07902 21.1989 9 21 9ZM21 13.5C20.8011 13.5 20.6103 13.579 20.4697 13.7197C20.329 13.8603 20.25 14.0511 20.25 14.25C20.25 14.4489 20.329 14.6397 20.4697 14.7803C20.6103 14.921 20.8011 15 21 15C21.1989 15 21.3897 14.921 21.5303 14.7803C21.671 14.6397 21.75 14.4489 21.75 14.25C21.75 14.0511 21.671 13.8603 21.5303 13.7197C21.3897 13.579 21.1989 13.5 21 13.5ZM21 18C20.8011 18 20.6103 18.079 20.4697 18.2197C20.329 18.3603 20.25 18.5511 20.25 18.75C20.25 18.9489 20.329 19.1397 20.4697 19.2803C20.6103 19.421 20.8011 19.5 21 19.5C21.1989 19.5 21.3897 19.421 21.5303 19.2803C21.671 19.1397 21.75 18.9489 21.75 18.75C21.75 18.5511 21.671 18.3603 21.5303 18.2197C21.3897 18.079 21.1989 18 21 18ZM23.25 4.5C23.0511 4.5 22.8603 4.57902 22.7197 4.71967C22.579 4.86032 22.5 5.05109 22.5 5.25C22.5 5.44891 22.579 5.63968 22.7197 5.78033C22.8603 5.92098 23.0511 6 23.25 6C23.4489 6 23.6397 5.92098 23.7803 5.78033C23.921 5.63968 24 5.44891 24 5.25C24 5.05109 23.921 4.86032 23.7803 4.71967C23.6397 4.57902 23.4489 4.5 23.25 4.5ZM23.25 9C23.0511 9 22.8603 9.07902 22.7197 9.21967C22.579 9.36032 22.5 9.55109 22.5 9.75C22.5 9.94891 22.579 10.1397 22.7197 10.2803C22.8603 10.421 23.0511 10.5 23.25 10.5C23.4489 10.5 23.6397 10.421 23.7803 10.2803C23.921 10.1397 24 9.94891 24 9.75C24 9.55109 23.921 9.36032 23.7803 9.21967C23.6397 9.07902 23.4489 9 23.25 9ZM23.25 13.5C23.0511 13.5 22.8603 13.579 22.7197 13.7197C22.579 13.8603 22.5 14.0511 22.5 14.25C22.5 14.4489 22.579 14.6397 22.7197 14.7803C22.8603 14.921 23.0511 15 23.25 15C23.4489 15 23.6397 14.921 23.7803 14.7803C23.921 14.6397 24 14.4489 24 14.25C24 14.0511 23.921 13.8603 23.7803 13.7197C23.6397 13.579 23.4489 13.5 23.25 13.5ZM23.25 18C23.0511 18 22.8603 18.079 22.7197 18.2197C22.579 18.3603 22.5 18.5511 22.5 18.75C22.5 18.9489 22.579 19.1397 22.7197 19.2803C22.8603 19.421 23.0511 19.5 23.25 19.5C23.4489 19.5 23.6397 19.421 23.7803 19.2803C23.921 19.1397 24 18.9489 24 18.75C24 18.5511 23.921 18.3603 23.7803 18.2197C23.6397 18.079 23.4489 18 23.25 18ZM5.25 2.25C5.05109 2.25 4.86032 2.32902 4.71967 2.46967C4.57902 2.61032 4.5 2.80109 4.5 3C4.5 3.19891 4.57902 3.38968 4.71967 3.53033C4.86032 3.67098 5.05109 3.75 5.25 3.75C5.44891 3.75 5.63968 3.67098 5.78033 3.53033C5.92098 3.38968 6 3.19891 6 3C6 2.80109 5.92098 2.61032 5.78033 2.46967C5.63968 2.32902 5.44891 2.25 5.25 2.25ZM12 2.25C11.8011 2.25 11.6103 2.32902 11.4697 2.46967C11.329 2.61032 11.25 2.80109 11.25 3C11.25 3.19891 11.329 3.38968 11.4697 3.53033C11.6103 3.67098 11.8011 3.75 12 3.75C12.1989 3.75 12.3897 3.67098 12.5303 3.53033C12.671 3.38968 12.75 3.19891 12.75 3C12.75 2.80109 12.671 2.61032 12.5303 2.46967C12.3897 2.32902 12.1989 2.25 12 2.25Z" fill="white"/>
</svg>
