<svg width="24" height="24" viewBox="0 0 24 24" fill="none" xmlns="http://www.w3.org/2000/svg">
<path d="M5.25 3.75C5.66421 3.75 6 3.41421 6 3C6 2.58579 5.66421 2.25 5.25 2.25C4.83579 2.25 4.5 2.58579 4.5 3C4.5 3.41421 4.83579 3.75 5.25 3.75Z" fill="white"/>
<path d="M3 3.75C3.41421 3.75 3.75 3.41421 3.75 3C3.75 2.58579 3.41421 2.25 3 2.25C2.58579 2.25 2.25 2.58579 2.25 3C2.25 3.41421 2.58579 3.75 3 3.75Z" fill="white"/>
<path d="M7.5 3.75C7.91421 3.75 8.25 3.41421 8.25 3C8.25 2.58579 7.91421 2.25 7.5 2.25C7.08579 2.25 6.75 2.58579 6.75 3C6.75 3.41421 7.08579 3.75 7.5 3.75Z" fill="white"/>
<path d="M9.75 3.75C10.1642 3.75 10.5 3.41421 10.5 3C10.5 2.58579 10.1642 2.25 9.75 2.25C9.33579 2.25 9 2.58579 9 3C9 3.41421 9.33579 3.75 9.75 3.75Z" fill="white"/>
<path d="M12 3.75C12.4142 3.75 12.75 3.41421 12.75 3C12.75 2.58579 12.4142 2.25 12 2.25C11.5858 2.25 11.25 2.58579 11.25 3C11.25 3.41421 11.5858 3.75 12 3.75Z" fill="white"/>
<path d="M14.25 3.75C14.6642 3.75 15 3.41421 15 3C15 2.58579 14.6642 2.25 14.25 2.25C13.8358 2.25 13.5 2.58579 13.5 3C13.5 3.41421 13.8358 3.75 14.25 3.75Z" fill="white"/>
<path d="M16.5 3.75C16.9142 3.75 17.25 3.41421 17.25 3C17.25 2.58579 16.9142 2.25 16.5 2.25C16.0858 2.25 15.75 2.58579 15.75 3C15.75 3.41421 16.0858 3.75 16.5 3.75Z" fill="white"/>
<path d="M18.75 3.75C19.1642 3.75 19.5 3.41421 19.5 3C19.5 2.58579 19.1642 2.25 18.75 2.25C18.3358 2.25 18 2.58579 18 3C18 3.41421 18.3358 3.75 18.75 3.75Z" fill="white"/>
<path d="M21 3.75C21.4142 3.75 21.75 3.41421 21.75 3C21.75 2.58579 21.4142 2.25 21 2.25C20.5858 2.25 20.25 2.58579 20.25 3C20.25 3.41421 20.5858 3.75 21 3.75Z" fill="white"/>
<path d="M3 8.25C3.41421 8.25 3.75 7.91421 3.75 7.5C3.75 7.08579 3.41421 6.75 3 6.75C2.58579 6.75 2.25 7.08579 2.25 7.5C2.25 7.91421 2.58579 8.25 3 8.25Z" fill="white"/>
<path d="M3 6C3.41421 6 3.75 5.66421 3.75 5.25C3.75 4.83579 3.41421 4.5 3 4.5C2.58579 4.5 2.25 4.83579 2.25 5.25C2.25 5.66421 2.58579 6 3 6Z" fill="white"/>
<path d="M21 8.25C21.4142 8.25 21.75 7.91421 21.75 7.5C21.75 7.08579 21.4142 6.75 21 6.75C20.5858 6.75 20.25 7.08579 20.25 7.5C20.25 7.91421 20.5858 8.25 21 8.25Z" fill="white"/>
<path d="M21 6C21.4142 6 21.75 5.66421 21.75 5.25C21.75 4.83579 21.4142 4.5 21 4.5C20.5858 4.5 20.25 4.83579 20.25 5.25C20.25 5.66421 20.5858 6 21 6Z" fill="white"/>
<path d="M3 10.5C3.41421 10.5 3.75 10.1642 3.75 9.75C3.75 9.33579 3.41421 9 3 9C2.58579 9 2.25 9.33579 2.25 9.75C2.25 10.1642 2.58579 10.5 3 10.5Z" fill="white"/>
<path d="M21 10.5C21.4142 10.5 21.75 10.1642 21.75 9.75C21.75 9.33579 21.4142 9 21 9C20.5858 9 20.25 9.33579 20.25 9.75C20.25 10.1642 20.5858 10.5 21 10.5Z" fill="white"/>
<path d="M3 12.75C3.41421 12.75 3.75 12.4142 3.75 12C3.75 11.5858 3.41421 11.25 3 11.25C2.58579 11.25 2.25 11.5858 2.25 12C2.25 12.4142 2.58579 12.75 3 12.75Z" fill="white"/>
<path d="M21 12.75C21.4142 12.75 21.75 12.4142 21.75 12C21.75 11.5858 21.4142 11.25 21 11.25C20.5858 11.25 20.25 11.5858 20.25 12C20.25 12.4142 20.5858 12.75 21 12.75Z" fill="white"/>
<path d="M3 15C3.41421 15 3.75 14.6642 3.75 14.25C3.75 13.8358 3.41421 13.5 3 13.5C2.58579 13.5 2.25 13.8358 2.25 14.25C2.25 14.6642 2.58579 15 3 15Z" fill="white"/>
<path d="M21 15C21.4142 15 21.75 14.6642 21.75 14.25C21.75 13.8358 21.4142 13.5 21 13.5C20.5858 13.5 20.25 13.8358 20.25 14.25C20.25 14.6642 20.5858 15 21 15Z" fill="white"/>
<path d="M3 17.25C3.41421 17.25 3.75 16.9142 3.75 16.5C3.75 16.0858 3.41421 15.75 3 15.75C2.58579 15.75 2.25 16.0858 2.25 16.5C2.25 16.9142 2.58579 17.25 3 17.25Z" fill="white"/>
<path d="M3 19.5C3.41421 19.5 3.75 19.1642 3.75 18.75C3.75 18.3358 3.41421 18 3 18C2.58579 18 2.25 18.3358 2.25 18.75C2.25 19.1642 2.58579 19.5 3 19.5Z" fill="white"/>
<path d="M3 21.75C3.41421 21.75 3.75 21.4142 3.75 21C3.75 20.5858 3.41421 20.25 3 20.25C2.58579 20.25 2.25 20.5858 2.25 21C2.25 21.4142 2.58579 21.75 3 21.75Z" fill="white"/>
<path d="M5.25 17.25C5.66421 17.25 6 16.9142 6 16.5C6 16.0858 5.66421 15.75 5.25 15.75C4.83579 15.75 4.5 16.0858 4.5 16.5C4.5 16.9142 4.83579 17.25 5.25 17.25Z" fill="white"/>
<path d="M5.25 21.75C5.66421 21.75 6 21.4142 6 21C6 20.5858 5.66421 20.25 5.25 20.25C4.83579 20.25 4.5 20.5858 4.5 21C4.5 21.4142 4.83579 21.75 5.25 21.75Z" fill="white"/>
<path d="M7.5 17.25C7.91421 17.25 8.25 16.9142 8.25 16.5C8.25 16.0858 7.91421 15.75 7.5 15.75C7.08579 15.75 6.75 16.0858 6.75 16.5C6.75 16.9142 7.08579 17.25 7.5 17.25Z" fill="white"/>
<path d="M9.75 17.25C10.1642 17.25 10.5 16.9142 10.5 16.5C10.5 16.0858 10.1642 15.75 9.75 15.75C9.33579 15.75 9 16.0858 9 16.5C9 16.9142 9.33579 17.25 9.75 17.25Z" fill="white"/>
<path d="M12 17.25C12.4142 17.25 12.75 16.9142 12.75 16.5C12.75 16.0858 12.4142 15.75 12 15.75C11.5858 15.75 11.25 16.0858 11.25 16.5C11.25 16.9142 11.5858 17.25 12 17.25Z" fill="white"/>
<path d="M12 19.5C12.4142 19.5 12.75 19.1642 12.75 18.75C12.75 18.3358 12.4142 18 12 18C11.5858 18 11.25 18.3358 11.25 18.75C11.25 19.1642 11.5858 19.5 12 19.5Z" fill="white"/>
<path d="M12 21.75C12.4142 21.75 12.75 21.4142 12.75 21C12.75 20.5858 12.4142 20.25 12 20.25C11.5858 20.25 11.25 20.5858 11.25 21C11.25 21.4142 11.5858 21.75 12 21.75Z" fill="white"/>
<path d="M14.25 21.75C14.6642 21.75 15 21.4142 15 21C15 20.5858 14.6642 20.25 14.25 20.25C13.8358 20.25 13.5 20.5858 13.5 21C13.5 21.4142 13.8358 21.75 14.25 21.75Z" fill="white"/>
<path d="M16.5 21.75C16.9142 21.75 17.25 21.4142 17.25 21C17.25 20.5858 16.9142 20.25 16.5 20.25C16.0858 20.25 15.75 20.5858 15.75 21C15.75 21.4142 16.0858 21.75 16.5 21.75Z" fill="white"/>
<path d="M18.75 21.75C19.1642 21.75 19.5 21.4142 19.5 21C19.5 20.5858 19.1642 20.25 18.75 20.25C18.3358 20.25 18 20.5858 18 21C18 21.4142 18.3358 21.75 18.75 21.75Z" fill="white"/>
<path d="M9.75 21.75C10.1642 21.75 10.5 21.4142 10.5 21C10.5 20.5858 10.1642 20.25 9.75 20.25C9.33579 20.25 9 20.5858 9 21C9 21.4142 9.33579 21.75 9.75 21.75Z" fill="white"/>
<path d="M7.5 21.75C7.91421 21.75 8.25 21.4142 8.25 21C8.25 20.5858 7.91421 20.25 7.5 20.25C7.08579 20.25 6.75 20.5858 6.75 21C6.75 21.4142 7.08579 21.75 7.5 21.75Z" fill="white"/>
<path d="M14.25 17.25C14.6642 17.25 15 16.9142 15 16.5C15 16.0858 14.6642 15.75 14.25 15.75C13.8358 15.75 13.5 16.0858 13.5 16.5C13.5 16.9142 13.8358 17.25 14.25 17.25Z" fill="white"/>
<path d="M16.5 17.25C16.9142 17.25 17.25 16.9142 17.25 16.5C17.25 16.0858 16.9142 15.75 16.5 15.75C16.0858 15.75 15.75 16.0858 15.75 16.5C15.75 16.9142 16.0858 17.25 16.5 17.25Z" fill="white"/>
<path d="M16.5 19.5C16.9142 19.5 17.25 19.1642 17.25 18.75C17.25 18.3358 16.9142 18 16.5 18C16.0858 18 15.75 18.3358 15.75 18.75C15.75 19.1642 16.0858 19.5 16.5 19.5Z" fill="white"/>
<path d="M14.25 19.5C14.6642 19.5 15 19.1642 15 18.75C15 18.3358 14.6642 18 14.25 18C13.8358 18 13.5 18.3358 13.5 18.75C13.5 19.1642 13.8358 19.5 14.25 19.5Z" fill="white"/>
<path d="M18.75 17.25C19.1642 17.25 19.5 16.9142 19.5 16.5C19.5 16.0858 19.1642 15.75 18.75 15.75C18.3358 15.75 18 16.0858 18 16.5C18 16.9142 18.3358 17.25 18.75 17.25Z" fill="white"/>
<path d="M21 17.25C21.4142 17.25 21.75 16.9142 21.75 16.5C21.75 16.0858 21.4142 15.75 21 15.75C20.5858 15.75 20.25 16.0858 20.25 16.5C20.25 16.9142 20.5858 17.25 21 17.25Z" fill="white"/>
<path d="M21 19.5C21.4142 19.5 21.75 19.1642 21.75 18.75C21.75 18.3358 21.4142 18 21 18C20.5858 18 20.25 18.3358 20.25 18.75C20.25 19.1642 20.5858 19.5 21 19.5Z" fill="white"/>
<path d="M21 21.75C21.4142 21.75 21.75 21.4142 21.75 21C21.75 20.5858 21.4142 20.25 21 20.25C20.5858 20.25 20.25 20.5858 20.25 21C20.25 21.4142 20.5858 21.75 21 21.75Z" fill="white"/>
</svg>
